<mxfile host="65bd71144e" pages="2">
    <diagram name="PROD. CREAR" id="2a216829-ef6e-dabb-86c1-c78162f3ba2b">
        <mxGraphModel dx="4308" dy="2460" grid="1" gridSize="10" guides="1" tooltips="1" connect="1" arrows="1" fold="1" page="1" pageScale="1" pageWidth="2336" pageHeight="1654" background="none" math="0" shadow="0">
            <root>
                <mxCell id="0"/>
                <mxCell id="1" parent="0"/>
                <mxCell id="P9UiUPnGAxaEYvt76but-6" value="Plan de produccion MIOBOX MES" style="swimlane;html=1;childLayout=stackLayout;resizeParent=1;resizeParentMax=0;horizontal=0;startSize=20;horizontalStack=0;strokeWidth=1;" parent="1" vertex="1">
                    <mxGeometry x="120" y="80" width="1940" height="1410" as="geometry"/>
                </mxCell>
                <mxCell id="P9UiUPnGAxaEYvt76but-7" value="PLANEADOR" style="swimlane;html=1;startSize=20;horizontal=0;strokeWidth=1;fillColor=#fff2cc;strokeColor=#d6b656;" parent="P9UiUPnGAxaEYvt76but-6" vertex="1">
                    <mxGeometry x="20" width="1920" height="640" as="geometry"/>
                </mxCell>
                <mxCell id="P9UiUPnGAxaEYvt76but-23" style="edgeStyle=orthogonalEdgeStyle;rounded=0;orthogonalLoop=1;jettySize=auto;html=1;entryX=0;entryY=0.5;entryDx=0;entryDy=0;entryPerimeter=0;" parent="P9UiUPnGAxaEYvt76but-7" source="P9UiUPnGAxaEYvt76but-15" target="P9UiUPnGAxaEYvt76but-20" edge="1">
                    <mxGeometry relative="1" as="geometry"/>
                </mxCell>
                <mxCell id="P9UiUPnGAxaEYvt76but-15" value="Inicio" style="points=[[0.145,0.145,0],[0.5,0,0],[0.855,0.145,0],[1,0.5,0],[0.855,0.855,0],[0.5,1,0],[0.145,0.855,0],[0,0.5,0]];shape=mxgraph.bpmn.event;html=1;verticalLabelPosition=bottom;labelBackgroundColor=#ffffff;verticalAlign=top;align=center;perimeter=ellipsePerimeter;outlineConnect=0;aspect=fixed;outline=standard;symbol=general;strokeWidth=1;fillColor=#d5e8d4;strokeColor=#82b366;" parent="P9UiUPnGAxaEYvt76but-7" vertex="1">
                    <mxGeometry x="40" y="145" width="50" height="50" as="geometry"/>
                </mxCell>
                <mxCell id="P9UiUPnGAxaEYvt76but-33" style="edgeStyle=orthogonalEdgeStyle;rounded=0;orthogonalLoop=1;jettySize=auto;html=1;entryX=0;entryY=0.5;entryDx=0;entryDy=0;entryPerimeter=0;" parent="P9UiUPnGAxaEYvt76but-7" source="P9UiUPnGAxaEYvt76but-14" target="P9UiUPnGAxaEYvt76but-32" edge="1">
                    <mxGeometry relative="1" as="geometry"/>
                </mxCell>
                <mxCell id="P9UiUPnGAxaEYvt76but-14" value="Crear plan de produccion" style="points=[[0.25,0,0],[0.5,0,0],[0.75,0,0],[1,0.25,0],[1,0.5,0],[1,0.75,0],[0.75,1,0],[0.5,1,0],[0.25,1,0],[0,0.75,0],[0,0.5,0],[0,0.25,0]];shape=mxgraph.bpmn.task;whiteSpace=wrap;rectStyle=rounded;size=10;taskMarker=user;strokeWidth=1;fillColor=#dae8fc;strokeColor=#6c8ebf;" parent="P9UiUPnGAxaEYvt76but-7" vertex="1">
                    <mxGeometry x="290" y="145" width="120" height="50" as="geometry"/>
                </mxCell>
                <mxCell id="P9UiUPnGAxaEYvt76but-28" style="edgeStyle=orthogonalEdgeStyle;rounded=0;orthogonalLoop=1;jettySize=auto;html=1;entryX=0;entryY=0.5;entryDx=0;entryDy=0;entryPerimeter=0;" parent="P9UiUPnGAxaEYvt76but-7" source="P9UiUPnGAxaEYvt76but-18" target="P9UiUPnGAxaEYvt76but-27" edge="1">
                    <mxGeometry relative="1" as="geometry"/>
                </mxCell>
                <mxCell id="P9UiUPnGAxaEYvt76but-18" value="Verificar en calendario producciones planeadas" style="points=[[0.25,0,0],[0.5,0,0],[0.75,0,0],[1,0.25,0],[1,0.5,0],[1,0.75,0],[0.75,1,0],[0.5,1,0],[0.25,1,0],[0,0.75,0],[0,0.5,0],[0,0.25,0]];shape=mxgraph.bpmn.task;whiteSpace=wrap;rectStyle=rounded;size=10;taskMarker=user;strokeWidth=1;fillColor=#dae8fc;strokeColor=#6c8ebf;" parent="P9UiUPnGAxaEYvt76but-7" vertex="1">
                    <mxGeometry x="105" y="290" width="120" height="70" as="geometry"/>
                </mxCell>
                <mxCell id="P9UiUPnGAxaEYvt76but-24" value="No" style="edgeStyle=orthogonalEdgeStyle;rounded=0;orthogonalLoop=1;jettySize=auto;html=1;" parent="P9UiUPnGAxaEYvt76but-7" source="P9UiUPnGAxaEYvt76but-20" target="P9UiUPnGAxaEYvt76but-18" edge="1">
                    <mxGeometry relative="1" as="geometry"/>
                </mxCell>
                <mxCell id="P9UiUPnGAxaEYvt76but-25" style="edgeStyle=orthogonalEdgeStyle;rounded=0;orthogonalLoop=1;jettySize=auto;html=1;" parent="P9UiUPnGAxaEYvt76but-7" source="P9UiUPnGAxaEYvt76but-20" target="P9UiUPnGAxaEYvt76but-14" edge="1">
                    <mxGeometry relative="1" as="geometry"/>
                </mxCell>
                <mxCell id="P9UiUPnGAxaEYvt76but-26" value="Si" style="edgeLabel;html=1;align=center;verticalAlign=middle;resizable=0;points=[];" parent="P9UiUPnGAxaEYvt76but-25" vertex="1" connectable="0">
                    <mxGeometry x="-0.31" y="1" relative="1" as="geometry">
                        <mxPoint y="1" as="offset"/>
                    </mxGeometry>
                </mxCell>
                <mxCell id="P9UiUPnGAxaEYvt76but-20" value="Crear plan &lt;br&gt;de produccion?" style="points=[[0.25,0.25,0],[0.5,0,0],[0.75,0.25,0],[1,0.5,0],[0.75,0.75,0],[0.5,1,0],[0.25,0.75,0],[0,0.5,0]];shape=mxgraph.bpmn.gateway2;html=1;verticalLabelPosition=bottom;labelBackgroundColor=#ffffff;verticalAlign=top;align=center;perimeter=rhombusPerimeter;outlineConnect=0;outline=none;symbol=none;gwType=exclusive;strokeWidth=1;fillColor=#fff2cc;strokeColor=#d6b656;" parent="P9UiUPnGAxaEYvt76but-7" vertex="1">
                    <mxGeometry x="140" y="145" width="50" height="50" as="geometry"/>
                </mxCell>
                <mxCell id="P9UiUPnGAxaEYvt76but-31" style="edgeStyle=orthogonalEdgeStyle;rounded=0;orthogonalLoop=1;jettySize=auto;html=1;" parent="P9UiUPnGAxaEYvt76but-7" source="P9UiUPnGAxaEYvt76but-27" target="P9UiUPnGAxaEYvt76but-14" edge="1">
                    <mxGeometry relative="1" as="geometry"/>
                </mxCell>
                <mxCell id="P9UiUPnGAxaEYvt76but-27" value="Plan listo &lt;br&gt;para programar?" style="points=[[0.25,0.25,0],[0.5,0,0],[0.75,0.25,0],[1,0.5,0],[0.75,0.75,0],[0.5,1,0],[0.25,0.75,0],[0,0.5,0]];shape=mxgraph.bpmn.gateway2;html=1;verticalLabelPosition=bottom;labelBackgroundColor=#ffffff;verticalAlign=top;align=center;perimeter=rhombusPerimeter;outlineConnect=0;outline=none;symbol=none;gwType=exclusive;strokeWidth=1;fillColor=#fff2cc;strokeColor=#d6b656;" parent="P9UiUPnGAxaEYvt76but-7" vertex="1">
                    <mxGeometry x="325" y="300" width="50" height="50" as="geometry"/>
                </mxCell>
                <mxCell id="P9UiUPnGAxaEYvt76but-35" style="edgeStyle=orthogonalEdgeStyle;rounded=0;orthogonalLoop=1;jettySize=auto;html=1;entryX=0;entryY=0.5;entryDx=0;entryDy=0;entryPerimeter=0;" parent="P9UiUPnGAxaEYvt76but-7" source="P9UiUPnGAxaEYvt76but-32" target="P9UiUPnGAxaEYvt76but-34" edge="1">
                    <mxGeometry relative="1" as="geometry"/>
                </mxCell>
                <mxCell id="P9UiUPnGAxaEYvt76but-32" value="Establecer receta y cantidades a producir" style="points=[[0.25,0,0],[0.5,0,0],[0.75,0,0],[1,0.25,0],[1,0.5,0],[1,0.75,0],[0.75,1,0],[0.5,1,0],[0.25,1,0],[0,0.75,0],[0,0.5,0],[0,0.25,0]];shape=mxgraph.bpmn.task;whiteSpace=wrap;rectStyle=rounded;size=10;taskMarker=user;strokeWidth=1;fillColor=#dae8fc;strokeColor=#6c8ebf;" parent="P9UiUPnGAxaEYvt76but-7" vertex="1">
                    <mxGeometry x="450" y="140" width="120" height="60" as="geometry"/>
                </mxCell>
                <mxCell id="P9UiUPnGAxaEYvt76but-38" value="No" style="edgeStyle=orthogonalEdgeStyle;rounded=0;orthogonalLoop=1;jettySize=auto;html=1;entryX=0;entryY=0.5;entryDx=0;entryDy=0;entryPerimeter=0;" parent="P9UiUPnGAxaEYvt76but-7" source="P9UiUPnGAxaEYvt76but-34" target="P9UiUPnGAxaEYvt76but-37" edge="1">
                    <mxGeometry relative="1" as="geometry">
                        <Array as="points">
                            <mxPoint x="645" y="70"/>
                        </Array>
                    </mxGeometry>
                </mxCell>
                <mxCell id="P9UiUPnGAxaEYvt76but-39" value="Si" style="edgeStyle=orthogonalEdgeStyle;rounded=0;orthogonalLoop=1;jettySize=auto;html=1;" parent="P9UiUPnGAxaEYvt76but-7" source="P9UiUPnGAxaEYvt76but-34" target="P9UiUPnGAxaEYvt76but-36" edge="1">
                    <mxGeometry relative="1" as="geometry"/>
                </mxCell>
                <mxCell id="P9UiUPnGAxaEYvt76but-34" value="UtilizarÃ¡ receta&lt;br&gt;precargada?" style="points=[[0.25,0.25,0],[0.5,0,0],[0.75,0.25,0],[1,0.5,0],[0.75,0.75,0],[0.5,1,0],[0.25,0.75,0],[0,0.5,0]];shape=mxgraph.bpmn.gateway2;html=1;verticalLabelPosition=bottom;labelBackgroundColor=#ffffff;verticalAlign=top;align=center;perimeter=rhombusPerimeter;outlineConnect=0;outline=none;symbol=none;gwType=exclusive;strokeWidth=1;fillColor=#fff2cc;strokeColor=#d6b656;" parent="P9UiUPnGAxaEYvt76but-7" vertex="1">
                    <mxGeometry x="620" y="145" width="50" height="50" as="geometry"/>
                </mxCell>
                <mxCell id="P9UiUPnGAxaEYvt76but-79" style="edgeStyle=orthogonalEdgeStyle;rounded=1;orthogonalLoop=1;jettySize=auto;html=1;entryX=0;entryY=0.5;entryDx=0;entryDy=0;entryPerimeter=0;exitX=0.5;exitY=1;exitDx=0;exitDy=0;exitPerimeter=0;" parent="P9UiUPnGAxaEYvt76but-7" source="P9UiUPnGAxaEYvt76but-36" target="P9UiUPnGAxaEYvt76but-78" edge="1">
                    <mxGeometry relative="1" as="geometry"/>
                </mxCell>
                <mxCell id="P9UiUPnGAxaEYvt76but-36" value="Establecer receta y cantidades a producir" style="points=[[0.25,0,0],[0.5,0,0],[0.75,0,0],[1,0.25,0],[1,0.5,0],[1,0.75,0],[0.75,1,0],[0.5,1,0],[0.25,1,0],[0,0.75,0],[0,0.5,0],[0,0.25,0]];shape=mxgraph.bpmn.task;whiteSpace=wrap;rectStyle=rounded;size=10;taskMarker=user;strokeWidth=1;fillColor=#dae8fc;strokeColor=#6c8ebf;" parent="P9UiUPnGAxaEYvt76but-7" vertex="1">
                    <mxGeometry x="585" y="280" width="120" height="60" as="geometry"/>
                </mxCell>
                <mxCell id="P9UiUPnGAxaEYvt76but-41" value="No" style="edgeStyle=orthogonalEdgeStyle;rounded=0;orthogonalLoop=1;jettySize=auto;html=1;entryX=0;entryY=0.5;entryDx=0;entryDy=0;entryPerimeter=0;" parent="P9UiUPnGAxaEYvt76but-7" source="P9UiUPnGAxaEYvt76but-37" target="P9UiUPnGAxaEYvt76but-40" edge="1">
                    <mxGeometry relative="1" as="geometry"/>
                </mxCell>
                <mxCell id="P9UiUPnGAxaEYvt76but-47" value="Si" style="edgeStyle=orthogonalEdgeStyle;rounded=1;orthogonalLoop=1;jettySize=auto;html=1;entryX=0.25;entryY=0;entryDx=0;entryDy=0;entryPerimeter=0;" parent="P9UiUPnGAxaEYvt76but-7" source="P9UiUPnGAxaEYvt76but-37" target="P9UiUPnGAxaEYvt76but-46" edge="1">
                    <mxGeometry relative="1" as="geometry"/>
                </mxCell>
                <mxCell id="P9UiUPnGAxaEYvt76but-37" value="ModificarÃ¡ una&lt;br&gt;receta?" style="points=[[0.25,0.25,0],[0.5,0,0],[0.75,0.25,0],[1,0.5,0],[0.75,0.75,0],[0.5,1,0],[0.25,0.75,0],[0,0.5,0]];shape=mxgraph.bpmn.gateway2;html=1;verticalLabelPosition=bottom;labelBackgroundColor=#ffffff;verticalAlign=top;align=center;perimeter=rhombusPerimeter;outlineConnect=0;outline=none;symbol=none;gwType=exclusive;strokeWidth=1;fillColor=#fff2cc;strokeColor=#d6b656;" parent="P9UiUPnGAxaEYvt76but-7" vertex="1">
                    <mxGeometry x="680" y="45" width="50" height="50" as="geometry"/>
                </mxCell>
                <mxCell id="P9UiUPnGAxaEYvt76but-43" style="edgeStyle=orthogonalEdgeStyle;rounded=0;orthogonalLoop=1;jettySize=auto;html=1;entryX=0;entryY=0.5;entryDx=0;entryDy=0;entryPerimeter=0;" parent="P9UiUPnGAxaEYvt76but-7" source="P9UiUPnGAxaEYvt76but-40" target="P9UiUPnGAxaEYvt76but-42" edge="1">
                    <mxGeometry relative="1" as="geometry"/>
                </mxCell>
                <mxCell id="P9UiUPnGAxaEYvt76but-40" value="Crear una receta temporal" style="points=[[0.25,0,0],[0.5,0,0],[0.75,0,0],[1,0.25,0],[1,0.5,0],[1,0.75,0],[0.75,1,0],[0.5,1,0],[0.25,1,0],[0,0.75,0],[0,0.5,0],[0,0.25,0]];shape=mxgraph.bpmn.task;whiteSpace=wrap;rectStyle=rounded;size=10;taskMarker=user;strokeWidth=1;fillColor=#dae8fc;strokeColor=#6c8ebf;" parent="P9UiUPnGAxaEYvt76but-7" vertex="1">
                    <mxGeometry x="790" y="40" width="120" height="60" as="geometry"/>
                </mxCell>
                <mxCell id="P9UiUPnGAxaEYvt76but-45" style="edgeStyle=orthogonalEdgeStyle;rounded=0;orthogonalLoop=1;jettySize=auto;html=1;entryX=0.5;entryY=0;entryDx=0;entryDy=0;entryPerimeter=0;" parent="P9UiUPnGAxaEYvt76but-7" source="P9UiUPnGAxaEYvt76but-42" target="P9UiUPnGAxaEYvt76but-88" edge="1">
                    <mxGeometry relative="1" as="geometry">
                        <mxPoint x="1130" y="70" as="targetPoint"/>
                    </mxGeometry>
                </mxCell>
                <mxCell id="P9UiUPnGAxaEYvt76but-42" value="Guardar de receta temporal" style="points=[[0.25,0,0],[0.5,0,0],[0.75,0,0],[1,0.25,0],[1,0.5,0],[1,0.75,0],[0.75,1,0],[0.5,1,0],[0.25,1,0],[0,0.75,0],[0,0.5,0],[0,0.25,0]];shape=mxgraph.bpmn.task;whiteSpace=wrap;rectStyle=rounded;size=10;taskMarker=service;strokeWidth=1;fillColor=#dae8fc;strokeColor=#6c8ebf;" parent="P9UiUPnGAxaEYvt76but-7" vertex="1">
                    <mxGeometry x="960" y="40" width="120" height="60" as="geometry"/>
                </mxCell>
                <mxCell id="P9UiUPnGAxaEYvt76but-80" style="edgeStyle=orthogonalEdgeStyle;rounded=1;orthogonalLoop=1;jettySize=auto;html=1;entryX=0.5;entryY=0;entryDx=0;entryDy=0;entryPerimeter=0;" parent="P9UiUPnGAxaEYvt76but-7" source="P9UiUPnGAxaEYvt76but-46" target="P9UiUPnGAxaEYvt76but-78" edge="1">
                    <mxGeometry relative="1" as="geometry"/>
                </mxCell>
                <mxCell id="P9UiUPnGAxaEYvt76but-46" value="Modificar receta" style="points=[[0.25,0,0],[0.5,0,0],[0.75,0,0],[1,0.25,0],[1,0.5,0],[1,0.75,0],[0.75,1,0],[0.5,1,0],[0.25,1,0],[0,0.75,0],[0,0.5,0],[0,0.25,0]];shape=mxgraph.bpmn.task;whiteSpace=wrap;rectStyle=rounded;size=10;taskMarker=user;strokeWidth=1;fillColor=#dae8fc;strokeColor=#6c8ebf;" parent="P9UiUPnGAxaEYvt76but-7" vertex="1">
                    <mxGeometry x="730" y="195" width="120" height="60" as="geometry"/>
                </mxCell>
                <mxCell id="P9UiUPnGAxaEYvt76but-82" style="edgeStyle=orthogonalEdgeStyle;rounded=1;orthogonalLoop=1;jettySize=auto;html=1;entryX=0;entryY=0.5;entryDx=0;entryDy=0;entryPerimeter=0;" parent="P9UiUPnGAxaEYvt76but-7" source="P9UiUPnGAxaEYvt76but-78" target="P9UiUPnGAxaEYvt76but-81" edge="1">
                    <mxGeometry relative="1" as="geometry"/>
                </mxCell>
                <mxCell id="P9UiUPnGAxaEYvt76but-78" value="Definir datos de programaciÃ³n" style="points=[[0.25,0,0],[0.5,0,0],[0.75,0,0],[1,0.25,0],[1,0.5,0],[1,0.75,0],[0.75,1,0],[0.5,1,0],[0.25,1,0],[0,0.75,0],[0,0.5,0],[0,0.25,0]];shape=mxgraph.bpmn.task;whiteSpace=wrap;rectStyle=rounded;size=10;taskMarker=user;strokeWidth=1;fillColor=#dae8fc;strokeColor=#6c8ebf;" parent="P9UiUPnGAxaEYvt76but-7" vertex="1">
                    <mxGeometry x="730" y="360" width="120" height="60" as="geometry"/>
                </mxCell>
                <mxCell id="P9UiUPnGAxaEYvt76but-84" style="edgeStyle=orthogonalEdgeStyle;rounded=1;orthogonalLoop=1;jettySize=auto;html=1;entryX=0;entryY=0.5;entryDx=0;entryDy=0;entryPerimeter=0;" parent="P9UiUPnGAxaEYvt76but-7" source="P9UiUPnGAxaEYvt76but-81" target="P9UiUPnGAxaEYvt76but-83" edge="1">
                    <mxGeometry relative="1" as="geometry"/>
                </mxCell>
                <mxCell id="P9UiUPnGAxaEYvt76but-81" value="Definir linea de producciÃ³n" style="points=[[0.25,0,0],[0.5,0,0],[0.75,0,0],[1,0.25,0],[1,0.5,0],[1,0.75,0],[0.75,1,0],[0.5,1,0],[0.25,1,0],[0,0.75,0],[0,0.5,0],[0,0.25,0]];shape=mxgraph.bpmn.task;whiteSpace=wrap;rectStyle=rounded;size=10;taskMarker=user;strokeWidth=1;fillColor=#dae8fc;strokeColor=#6c8ebf;" parent="P9UiUPnGAxaEYvt76but-7" vertex="1">
                    <mxGeometry x="920" y="360" width="120" height="60" as="geometry"/>
                </mxCell>
                <mxCell id="P9UiUPnGAxaEYvt76but-86" style="edgeStyle=orthogonalEdgeStyle;rounded=1;orthogonalLoop=1;jettySize=auto;html=1;entryX=0;entryY=0.5;entryDx=0;entryDy=0;entryPerimeter=0;" parent="P9UiUPnGAxaEYvt76but-7" source="P9UiUPnGAxaEYvt76but-83" target="P9UiUPnGAxaEYvt76but-85" edge="1">
                    <mxGeometry relative="1" as="geometry"/>
                </mxCell>
                <mxCell id="P9UiUPnGAxaEYvt76but-83" value="Definir un estado del plan" style="points=[[0.25,0,0],[0.5,0,0],[0.75,0,0],[1,0.25,0],[1,0.5,0],[1,0.75,0],[0.75,1,0],[0.5,1,0],[0.25,1,0],[0,0.75,0],[0,0.5,0],[0,0.25,0]];shape=mxgraph.bpmn.task;whiteSpace=wrap;rectStyle=rounded;size=10;taskMarker=user;strokeWidth=1;fillColor=#dae8fc;strokeColor=#6c8ebf;" parent="P9UiUPnGAxaEYvt76but-7" vertex="1">
                    <mxGeometry x="1080" y="360" width="120" height="60" as="geometry"/>
                </mxCell>
                <mxCell id="P9UiUPnGAxaEYvt76but-89" value="No" style="edgeStyle=orthogonalEdgeStyle;rounded=1;orthogonalLoop=1;jettySize=auto;html=1;entryX=0;entryY=0.5;entryDx=0;entryDy=0;entryPerimeter=0;" parent="P9UiUPnGAxaEYvt76but-7" source="P9UiUPnGAxaEYvt76but-85" target="P9UiUPnGAxaEYvt76but-87" edge="1">
                    <mxGeometry relative="1" as="geometry"/>
                </mxCell>
                <mxCell id="P9UiUPnGAxaEYvt76but-132" value="Si" style="edgeStyle=orthogonalEdgeStyle;rounded=1;orthogonalLoop=1;jettySize=auto;html=1;" parent="P9UiUPnGAxaEYvt76but-7" source="P9UiUPnGAxaEYvt76but-85" target="P9UiUPnGAxaEYvt76but-131" edge="1">
                    <mxGeometry relative="1" as="geometry"/>
                </mxCell>
                <mxCell id="P9UiUPnGAxaEYvt76but-85" value="Define estado&amp;nbsp;&lt;br&gt;planeado?" style="points=[[0.25,0.25,0],[0.5,0,0],[0.75,0.25,0],[1,0.5,0],[0.75,0.75,0],[0.5,1,0],[0.25,0.75,0],[0,0.5,0]];shape=mxgraph.bpmn.gateway2;html=1;verticalLabelPosition=bottom;labelBackgroundColor=#ffffff;verticalAlign=top;align=center;perimeter=rhombusPerimeter;outlineConnect=0;outline=none;symbol=none;gwType=exclusive;strokeWidth=1;fillColor=#fff2cc;strokeColor=#d6b656;" parent="P9UiUPnGAxaEYvt76but-7" vertex="1">
                    <mxGeometry x="1250" y="365" width="50" height="50" as="geometry"/>
                </mxCell>
                <mxCell id="P9UiUPnGAxaEYvt76but-90" style="edgeStyle=orthogonalEdgeStyle;rounded=1;orthogonalLoop=1;jettySize=auto;html=1;entryX=0;entryY=0.5;entryDx=0;entryDy=0;entryPerimeter=0;" parent="P9UiUPnGAxaEYvt76but-7" source="P9UiUPnGAxaEYvt76but-87" target="P9UiUPnGAxaEYvt76but-88" edge="1">
                    <mxGeometry relative="1" as="geometry"/>
                </mxCell>
                <mxCell id="P9UiUPnGAxaEYvt76but-87" value="Guardar &#10;como&#10;PLANEADO" style="points=[[0.25,0,0],[0.5,0,0],[0.75,0,0],[1,0.25,0],[1,0.5,0],[1,0.75,0],[0.75,1,0],[0.5,1,0],[0.25,1,0],[0,0.75,0],[0,0.5,0],[0,0.25,0]];shape=mxgraph.bpmn.task;whiteSpace=wrap;rectStyle=rounded;size=10;taskMarker=service;strokeWidth=1;fillColor=#dae8fc;strokeColor=#6c8ebf;" parent="P9UiUPnGAxaEYvt76but-7" vertex="1">
                    <mxGeometry x="1350" y="360" width="120" height="60" as="geometry"/>
                </mxCell>
                <mxCell id="P9UiUPnGAxaEYvt76but-137" style="edgeStyle=orthogonalEdgeStyle;rounded=1;orthogonalLoop=1;jettySize=auto;html=1;entryX=0;entryY=0.5;entryDx=0;entryDy=0;entryPerimeter=0;" parent="P9UiUPnGAxaEYvt76but-7" source="P9UiUPnGAxaEYvt76but-88" target="P9UiUPnGAxaEYvt76but-136" edge="1">
                    <mxGeometry relative="1" as="geometry"/>
                </mxCell>
                <mxCell id="P9UiUPnGAxaEYvt76but-133" style="edgeStyle=orthogonalEdgeStyle;rounded=1;orthogonalLoop=1;jettySize=auto;html=1;entryX=0.5;entryY=1;entryDx=0;entryDy=0;entryPerimeter=0;" parent="P9UiUPnGAxaEYvt76but-7" source="P9UiUPnGAxaEYvt76but-131" target="P9UiUPnGAxaEYvt76but-88" edge="1">
                    <mxGeometry relative="1" as="geometry"/>
                </mxCell>
                <mxCell id="P9UiUPnGAxaEYvt76but-131" value="Guardar &#10;como&#10;PROGRAMADO" style="points=[[0.25,0,0],[0.5,0,0],[0.75,0,0],[1,0.25,0],[1,0.5,0],[1,0.75,0],[0.75,1,0],[0.5,1,0],[0.25,1,0],[0,0.75,0],[0,0.5,0],[0,0.25,0]];shape=mxgraph.bpmn.task;whiteSpace=wrap;rectStyle=rounded;size=10;taskMarker=service;strokeWidth=1;fillColor=#0050ef;strokeColor=#001DBC;fontColor=#ffffff;" parent="P9UiUPnGAxaEYvt76but-7" vertex="1">
                    <mxGeometry x="1215" y="510" width="120" height="60" as="geometry"/>
                </mxCell>
                <mxCell id="P9UiUPnGAxaEYvt76but-136" value="Fin" style="points=[[0.145,0.145,0],[0.5,0,0],[0.855,0.145,0],[1,0.5,0],[0.855,0.855,0],[0.5,1,0],[0.145,0.855,0],[0,0.5,0]];shape=mxgraph.bpmn.event;html=1;verticalLabelPosition=bottom;labelBackgroundColor=#ffffff;verticalAlign=top;align=center;perimeter=ellipsePerimeter;outlineConnect=0;aspect=fixed;outline=end;symbol=terminate2;strokeWidth=1;fillColor=#f8cecc;strokeColor=#b85450;" parent="P9UiUPnGAxaEYvt76but-7" vertex="1">
                    <mxGeometry x="1750" y="365" width="50" height="50" as="geometry"/>
                </mxCell>
                <mxCell id="P9UiUPnGAxaEYvt76but-160" value="" style="group" parent="P9UiUPnGAxaEYvt76but-7" vertex="1" connectable="0">
                    <mxGeometry x="1500" y="350" width="120" height="70" as="geometry"/>
                </mxCell>
                <mxCell id="P9UiUPnGAxaEYvt76but-88" value="Registro de evento" style="points=[[0.25,0,0],[0.5,0,0],[0.75,0,0],[1,0.25,0],[1,0.5,0],[1,0.75,0],[0.75,1,0],[0.5,1,0],[0.25,1,0],[0,0.75,0],[0,0.5,0],[0,0.25,0]];shape=mxgraph.bpmn.task;whiteSpace=wrap;rectStyle=rounded;size=10;taskMarker=service;strokeWidth=1;fillColor=#dae8fc;strokeColor=#6c8ebf;" parent="P9UiUPnGAxaEYvt76but-160" vertex="1">
                    <mxGeometry y="10" width="120" height="60" as="geometry"/>
                </mxCell>
                <mxCell id="P9UiUPnGAxaEYvt76but-138" value="" style="shape=datastore;whiteSpace=wrap;html=1;labelPosition=center;verticalLabelPosition=bottom;align=center;verticalAlign=top;strokeWidth=1;" parent="P9UiUPnGAxaEYvt76but-160" vertex="1">
                    <mxGeometry x="100" width="20" height="30" as="geometry"/>
                </mxCell>
                <mxCell id="P9UiUPnGAxaEYvt76but-8" value="OPERADOR" style="swimlane;html=1;startSize=20;horizontal=0;strokeWidth=1;fillColor=#ffe6cc;strokeColor=#d79b00;" parent="P9UiUPnGAxaEYvt76but-6" vertex="1">
                    <mxGeometry x="20" y="640" width="1920" height="320" as="geometry"/>
                </mxCell>
                <mxCell id="P9UiUPnGAxaEYvt76but-143" value="" style="group" parent="P9UiUPnGAxaEYvt76but-8" vertex="1" connectable="0">
                    <mxGeometry x="90" y="14" width="127" height="76" as="geometry"/>
                </mxCell>
                <mxCell id="P9UiUPnGAxaEYvt76but-135" value="Verificar en el calendario producciones programadas" style="points=[[0.25,0,0],[0.5,0,0],[0.75,0,0],[1,0.25,0],[1,0.5,0],[1,0.75,0],[0.75,1,0],[0.5,1,0],[0.25,1,0],[0,0.75,0],[0,0.5,0],[0,0.25,0]];shape=mxgraph.bpmn.task;whiteSpace=wrap;rectStyle=rounded;size=10;taskMarker=user;strokeWidth=1;fillColor=#dae8fc;strokeColor=#6c8ebf;" parent="P9UiUPnGAxaEYvt76but-143" vertex="1">
                    <mxGeometry y="16" width="120" height="60" as="geometry"/>
                </mxCell>
                <mxCell id="P9UiUPnGAxaEYvt76but-142" value="" style="points=[[0.145,0.145,0],[0.5,0,0],[0.855,0.145,0],[1,0.5,0],[0.855,0.855,0],[0.5,1,0],[0.145,0.855,0],[0,0.5,0]];shape=mxgraph.bpmn.event;html=1;verticalLabelPosition=bottom;labelBackgroundColor=#ffffff;verticalAlign=top;align=center;perimeter=ellipsePerimeter;outlineConnect=0;aspect=fixed;outline=standard;symbol=timer;strokeWidth=1;" parent="P9UiUPnGAxaEYvt76but-143" vertex="1">
                    <mxGeometry x="97" width="30" height="30" as="geometry"/>
                </mxCell>
                <mxCell id="P9UiUPnGAxaEYvt76but-148" value="Cargar plan de produccion al SCADA" style="points=[[0.25,0,0],[0.5,0,0],[0.75,0,0],[1,0.25,0],[1,0.5,0],[1,0.75,0],[0.75,1,0],[0.5,1,0],[0.25,1,0],[0,0.75,0],[0,0.5,0],[0,0.25,0]];shape=mxgraph.bpmn.task;whiteSpace=wrap;rectStyle=rounded;size=10;taskMarker=user;strokeWidth=1;fillColor=#dae8fc;strokeColor=#6c8ebf;" parent="P9UiUPnGAxaEYvt76but-8" vertex="1">
                    <mxGeometry x="270" y="25" width="120" height="70" as="geometry"/>
                </mxCell>
                <mxCell id="P9UiUPnGAxaEYvt76but-149" style="edgeStyle=orthogonalEdgeStyle;rounded=1;orthogonalLoop=1;jettySize=auto;html=1;entryX=0;entryY=0.5;entryDx=0;entryDy=0;entryPerimeter=0;" parent="P9UiUPnGAxaEYvt76but-8" source="P9UiUPnGAxaEYvt76but-135" target="P9UiUPnGAxaEYvt76but-148" edge="1">
                    <mxGeometry relative="1" as="geometry"/>
                </mxCell>
                <mxCell id="P9UiUPnGAxaEYvt76but-151" value="" style="edgeStyle=orthogonalEdgeStyle;rounded=1;orthogonalLoop=1;jettySize=auto;html=1;entryX=0.5;entryY=0;entryDx=0;entryDy=0;startArrow=none;" parent="P9UiUPnGAxaEYvt76but-8" source="P9UiUPnGAxaEYvt76but-5" target="P9UiUPnGAxaEYvt76but-153" edge="1">
                    <mxGeometry relative="1" as="geometry">
                        <mxPoint x="460" y="150" as="targetPoint"/>
                    </mxGeometry>
                </mxCell>
                <mxCell id="P9UiUPnGAxaEYvt76but-153" value="Subproceso de produccion" style="html=1;whiteSpace=wrap;rounded=1;fillColor=#dae8fc;strokeColor=#6c8ebf;" parent="P9UiUPnGAxaEYvt76but-8" vertex="1">
                    <mxGeometry x="400" y="170" width="120" height="80" as="geometry"/>
                </mxCell>
                <mxCell id="P9UiUPnGAxaEYvt76but-154" value="" style="html=1;shape=plus;" parent="P9UiUPnGAxaEYvt76but-153" vertex="1">
                    <mxGeometry x="0.5" y="1" width="14" height="14" relative="1" as="geometry">
                        <mxPoint x="-7" y="-14" as="offset"/>
                    </mxGeometry>
                </mxCell>
                <mxCell id="P9UiUPnGAxaEYvt76but-5" value="" style="points=[[0.25,0.25,0],[0.5,0,0],[0.75,0.25,0],[1,0.5,0],[0.75,0.75,0],[0.5,1,0],[0.25,0.75,0],[0,0.5,0]];shape=mxgraph.bpmn.gateway2;html=1;verticalLabelPosition=bottom;labelBackgroundColor=#ffffff;verticalAlign=top;align=center;perimeter=rhombusPerimeter;outlineConnect=0;outline=none;symbol=none;gwType=parallel;strokeWidth=1;fillColor=#fff2cc;strokeColor=#d6b656;" parent="P9UiUPnGAxaEYvt76but-8" vertex="1">
                    <mxGeometry x="435" y="80" width="50" height="50" as="geometry"/>
                </mxCell>
                <mxCell id="P9UiUPnGAxaEYvt76but-155" value="" style="edgeStyle=orthogonalEdgeStyle;rounded=1;orthogonalLoop=1;jettySize=auto;html=1;entryX=0.5;entryY=0;entryDx=0;entryDy=0;endArrow=none;" parent="P9UiUPnGAxaEYvt76but-8" source="P9UiUPnGAxaEYvt76but-148" target="P9UiUPnGAxaEYvt76but-5" edge="1">
                    <mxGeometry relative="1" as="geometry">
                        <mxPoint x="540" y="-249.9411764705883" as="sourcePoint"/>
                        <mxPoint x="610" y="-140" as="targetPoint"/>
                    </mxGeometry>
                </mxCell>
                <mxCell id="P9UiUPnGAxaEYvt76but-156" style="edgeStyle=orthogonalEdgeStyle;rounded=1;orthogonalLoop=1;jettySize=auto;html=1;entryX=0.5;entryY=1;entryDx=0;entryDy=0;entryPerimeter=0;" parent="P9UiUPnGAxaEYvt76but-6" source="P9UiUPnGAxaEYvt76but-5" target="P9UiUPnGAxaEYvt76but-88" edge="1">
                    <mxGeometry relative="1" as="geometry"/>
                </mxCell>
                <mxCell id="P9UiUPnGAxaEYvt76but-161" value="MIOBOX" style="swimlane;html=1;startSize=20;fontStyle=1;collapsible=0;horizontal=0;swimlaneLine=1;swimlaneFillColor=none;strokeWidth=2;fillColor=#dae8fc;strokeColor=#6c8ebf;" parent="P9UiUPnGAxaEYvt76but-6" vertex="1">
                    <mxGeometry x="20" y="960" width="1920" height="450" as="geometry"/>
                </mxCell>
                <mxCell id="P9UiUPnGAxaEYvt76but-164" style="edgeStyle=orthogonalEdgeStyle;rounded=1;orthogonalLoop=1;jettySize=auto;html=1;entryX=0;entryY=0.5;entryDx=0;entryDy=0;entryPerimeter=0;" parent="P9UiUPnGAxaEYvt76but-161" source="P9UiUPnGAxaEYvt76but-157" target="P9UiUPnGAxaEYvt76but-163" edge="1">
                    <mxGeometry relative="1" as="geometry"/>
                </mxCell>
                <mxCell id="P9UiUPnGAxaEYvt76but-165" style="edgeStyle=orthogonalEdgeStyle;rounded=1;orthogonalLoop=1;jettySize=auto;html=1;entryX=0.5;entryY=0;entryDx=0;entryDy=0;entryPerimeter=0;exitX=0.5;exitY=0;exitDx=0;exitDy=0;exitPerimeter=0;" parent="P9UiUPnGAxaEYvt76but-161" source="P9UiUPnGAxaEYvt76but-163" target="P9UiUPnGAxaEYvt76but-157" edge="1">
                    <mxGeometry relative="1" as="geometry">
                        <Array as="points">
                            <mxPoint x="635" y="200"/>
                            <mxPoint x="460" y="200"/>
                        </Array>
                    </mxGeometry>
                </mxCell>
                <mxCell id="P9UiUPnGAxaEYvt76but-166" value="No" style="edgeLabel;html=1;align=center;verticalAlign=middle;resizable=0;points=[];" parent="P9UiUPnGAxaEYvt76but-165" vertex="1" connectable="0">
                    <mxGeometry x="-0.0227" y="2" relative="1" as="geometry">
                        <mxPoint as="offset"/>
                    </mxGeometry>
                </mxCell>
                <mxCell id="P9UiUPnGAxaEYvt76but-243" value="Si" style="edgeStyle=orthogonalEdgeStyle;rounded=1;orthogonalLoop=1;jettySize=auto;html=1;entryX=0;entryY=0.5;entryDx=0;entryDy=0;entryPerimeter=0;" parent="P9UiUPnGAxaEYvt76but-161" source="P9UiUPnGAxaEYvt76but-163" target="P9UiUPnGAxaEYvt76but-167" edge="1">
                    <mxGeometry relative="1" as="geometry"/>
                </mxCell>
                <mxCell id="P9UiUPnGAxaEYvt76but-163" value="El proceso de produccion&lt;br&gt;ha terminado?" style="points=[[0.25,0.25,0],[0.5,0,0],[0.75,0.25,0],[1,0.5,0],[0.75,0.75,0],[0.5,1,0],[0.25,0.75,0],[0,0.5,0]];shape=mxgraph.bpmn.gateway2;html=1;verticalLabelPosition=bottom;labelBackgroundColor=#ffffff;verticalAlign=top;align=center;perimeter=rhombusPerimeter;outlineConnect=0;outline=none;symbol=none;gwType=exclusive;strokeWidth=1;fillColor=#fff2cc;strokeColor=#d6b656;" parent="P9UiUPnGAxaEYvt76but-161" vertex="1">
                    <mxGeometry x="610" y="295" width="50" height="50" as="geometry"/>
                </mxCell>
                <mxCell id="P9UiUPnGAxaEYvt76but-167" value="Actualiza estado&#10;a&#10;TERMINADO" style="points=[[0.25,0,0],[0.5,0,0],[0.75,0,0],[1,0.25,0],[1,0.5,0],[1,0.75,0],[0.75,1,0],[0.5,1,0],[0.25,1,0],[0,0.75,0],[0,0.5,0],[0,0.25,0]];shape=mxgraph.bpmn.task;whiteSpace=wrap;rectStyle=rounded;size=10;taskMarker=service;strokeWidth=1;fillColor=#dae8fc;strokeColor=#6c8ebf;" parent="P9UiUPnGAxaEYvt76but-161" vertex="1">
                    <mxGeometry x="770" y="290" width="120" height="60" as="geometry"/>
                </mxCell>
                <mxCell id="P9UiUPnGAxaEYvt76but-239" style="edgeStyle=orthogonalEdgeStyle;rounded=1;orthogonalLoop=1;jettySize=auto;html=1;entryX=0.5;entryY=0;entryDx=0;entryDy=0;entryPerimeter=0;startArrow=none;" parent="P9UiUPnGAxaEYvt76but-161" source="P9UiUPnGAxaEYvt76but-241" target="P9UiUPnGAxaEYvt76but-157" edge="1">
                    <mxGeometry relative="1" as="geometry"/>
                </mxCell>
                <mxCell id="P9UiUPnGAxaEYvt76but-237" value="Actualiza estado&#10;a&#10;PRODUCIENDO" style="points=[[0.25,0,0],[0.5,0,0],[0.75,0,0],[1,0.25,0],[1,0.5,0],[1,0.75,0],[0.75,1,0],[0.5,1,0],[0.25,1,0],[0,0.75,0],[0,0.5,0],[0,0.25,0]];shape=mxgraph.bpmn.task;whiteSpace=wrap;rectStyle=rounded;size=10;taskMarker=service;strokeWidth=1;fillColor=#dae8fc;strokeColor=#6c8ebf;" parent="P9UiUPnGAxaEYvt76but-161" vertex="1">
                    <mxGeometry x="400" y="60" width="120" height="60" as="geometry"/>
                </mxCell>
                <mxCell id="P9UiUPnGAxaEYvt76but-241" value="" style="points=[[0.25,0.25,0],[0.5,0,0],[0.75,0.25,0],[1,0.5,0],[0.75,0.75,0],[0.5,1,0],[0.25,0.75,0],[0,0.5,0]];shape=mxgraph.bpmn.gateway2;html=1;verticalLabelPosition=bottom;labelBackgroundColor=#ffffff;verticalAlign=top;align=center;perimeter=rhombusPerimeter;outlineConnect=0;outline=none;symbol=none;gwType=parallel;strokeWidth=1;fillColor=#fff2cc;strokeColor=#d6b656;" parent="P9UiUPnGAxaEYvt76but-161" vertex="1">
                    <mxGeometry x="435" y="140" width="50" height="50" as="geometry"/>
                </mxCell>
                <mxCell id="P9UiUPnGAxaEYvt76but-242" value="" style="edgeStyle=orthogonalEdgeStyle;rounded=1;orthogonalLoop=1;jettySize=auto;html=1;entryX=0.5;entryY=0;entryDx=0;entryDy=0;entryPerimeter=0;endArrow=none;" parent="P9UiUPnGAxaEYvt76but-161" source="P9UiUPnGAxaEYvt76but-237" target="P9UiUPnGAxaEYvt76but-241" edge="1">
                    <mxGeometry relative="1" as="geometry">
                        <mxPoint x="610" y="160" as="sourcePoint"/>
                        <mxPoint x="610" y="280" as="targetPoint"/>
                    </mxGeometry>
                </mxCell>
                <mxCell id="P9UiUPnGAxaEYvt76but-246" value="" style="group" parent="P9UiUPnGAxaEYvt76but-161" vertex="1" connectable="0">
                    <mxGeometry x="400" y="270" width="130" height="90" as="geometry"/>
                </mxCell>
                <mxCell id="P9UiUPnGAxaEYvt76but-157" value="Almacenar informacion del proceso de produccion" style="points=[[0.25,0,0],[0.5,0,0],[0.75,0,0],[1,0.25,0],[1,0.5,0],[1,0.75,0],[0.75,1,0],[0.5,1,0],[0.25,1,0],[0,0.75,0],[0,0.5,0],[0,0.25,0]];shape=mxgraph.bpmn.task;whiteSpace=wrap;rectStyle=rounded;size=10;taskMarker=abstract;isLoopStandard=1;strokeWidth=1;fillColor=#dae8fc;strokeColor=#6c8ebf;" parent="P9UiUPnGAxaEYvt76but-246" vertex="1">
                    <mxGeometry y="10" width="120" height="80" as="geometry"/>
                </mxCell>
                <mxCell id="P9UiUPnGAxaEYvt76but-245" value="" style="points=[[0.145,0.145,0],[0.5,0,0],[0.855,0.145,0],[1,0.5,0],[0.855,0.855,0],[0.5,1,0],[0.145,0.855,0],[0,0.5,0]];shape=mxgraph.bpmn.event;html=1;verticalLabelPosition=bottom;labelBackgroundColor=#ffffff;verticalAlign=top;align=center;perimeter=ellipsePerimeter;outlineConnect=0;aspect=fixed;outline=standard;symbol=timer;strokeWidth=1;" parent="P9UiUPnGAxaEYvt76but-246" vertex="1">
                    <mxGeometry x="100" width="30" height="30" as="geometry"/>
                </mxCell>
                <mxCell id="P9UiUPnGAxaEYvt76but-238" style="edgeStyle=orthogonalEdgeStyle;rounded=1;orthogonalLoop=1;jettySize=auto;html=1;entryX=0.5;entryY=0;entryDx=0;entryDy=0;entryPerimeter=0;" parent="P9UiUPnGAxaEYvt76but-6" source="P9UiUPnGAxaEYvt76but-153" target="P9UiUPnGAxaEYvt76but-237" edge="1">
                    <mxGeometry relative="1" as="geometry"/>
                </mxCell>
                <mxCell id="P9UiUPnGAxaEYvt76but-240" style="edgeStyle=orthogonalEdgeStyle;rounded=1;orthogonalLoop=1;jettySize=auto;html=1;entryX=0.5;entryY=1;entryDx=0;entryDy=0;entryPerimeter=0;exitX=1;exitY=0.5;exitDx=0;exitDy=0;exitPerimeter=0;" parent="P9UiUPnGAxaEYvt76but-6" source="P9UiUPnGAxaEYvt76but-241" target="P9UiUPnGAxaEYvt76but-88" edge="1">
                    <mxGeometry relative="1" as="geometry"/>
                </mxCell>
                <mxCell id="P9UiUPnGAxaEYvt76but-244" style="edgeStyle=orthogonalEdgeStyle;rounded=1;orthogonalLoop=1;jettySize=auto;html=1;entryX=0.5;entryY=1;entryDx=0;entryDy=0;entryPerimeter=0;" parent="P9UiUPnGAxaEYvt76but-6" source="P9UiUPnGAxaEYvt76but-167" target="P9UiUPnGAxaEYvt76but-88" edge="1">
                    <mxGeometry relative="1" as="geometry"/>
                </mxCell>
            </root>
        </mxGraphModel>
    </diagram>
    <diagram id="52VjOOfYJeBUQFCp_HfD" name="PÃ¡gina-2">
        <mxGraphModel dx="937" dy="2189" grid="1" gridSize="10" guides="1" tooltips="1" connect="1" arrows="1" fold="1" page="1" pageScale="1" pageWidth="2336" pageHeight="1654" math="0" shadow="0">
            <root>
                <mxCell id="0"/>
                <mxCell id="1" parent="0"/>
                <mxCell id="Wmu0Wc-_Iajqv-uVDVYJ-1" value="APROBACION DE ACTAS DE FINALIZACION DE PROYECTOS MIOBOX" style="swimlane;html=1;childLayout=stackLayout;resizeParent=1;resizeParentMax=0;horizontal=0;startSize=20;horizontalStack=0;strokeWidth=1;fontColor=#171717;labelBorderColor=#e1e0e0;" parent="1" vertex="1">
                    <mxGeometry x="120" y="70" width="2160" height="1390" as="geometry"/>
                </mxCell>
                <mxCell id="Wmu0Wc-_Iajqv-uVDVYJ-2" value="PLANEADOR O INGENIERO DE PROYECTO" style="swimlane;html=1;startSize=20;horizontal=0;strokeWidth=1;fillColor=#fff2cc;strokeColor=#d6b656;fontColor=#171717;labelBorderColor=#e1e0e0;" parent="Wmu0Wc-_Iajqv-uVDVYJ-1" vertex="1">
                    <mxGeometry x="20" width="2140" height="440" as="geometry"/>
                </mxCell>
                <mxCell id="Wmu0Wc-_Iajqv-uVDVYJ-3" style="edgeStyle=orthogonalEdgeStyle;rounded=0;orthogonalLoop=1;jettySize=auto;html=1;entryX=0;entryY=0.5;entryDx=0;entryDy=0;entryPerimeter=0;fontColor=#171717;labelBorderColor=#e1e0e0;" parent="Wmu0Wc-_Iajqv-uVDVYJ-2" source="Wmu0Wc-_Iajqv-uVDVYJ-4" target="Wmu0Wc-_Iajqv-uVDVYJ-12" edge="1">
                    <mxGeometry relative="1" as="geometry"/>
                </mxCell>
                <mxCell id="Wmu0Wc-_Iajqv-uVDVYJ-4" value="Inicio" style="points=[[0.145,0.145,0],[0.5,0,0],[0.855,0.145,0],[1,0.5,0],[0.855,0.855,0],[0.5,1,0],[0.145,0.855,0],[0,0.5,0]];shape=mxgraph.bpmn.event;html=1;verticalLabelPosition=bottom;labelBackgroundColor=#ffffff;verticalAlign=top;align=center;perimeter=ellipsePerimeter;outlineConnect=0;aspect=fixed;outline=standard;symbol=general;strokeWidth=1;fillColor=#d5e8d4;strokeColor=#82b366;fontColor=#171717;labelBorderColor=#e1e0e0;" parent="Wmu0Wc-_Iajqv-uVDVYJ-2" vertex="1">
                    <mxGeometry x="40" y="137.5" width="50" height="50" as="geometry"/>
                </mxCell>
                <mxCell id="Wmu0Wc-_Iajqv-uVDVYJ-84" style="edgeStyle=orthogonalEdgeStyle;curved=1;comic=0;orthogonalLoop=1;jettySize=auto;html=1;entryX=0;entryY=0.5;entryDx=0;entryDy=0;entryPerimeter=0;fontFamily=Helvetica;fontSize=22;fontColor=#171717;startSize=0;endSize=2;strokeColor=#1A1A1A;strokeWidth=1;fillColor=default;labelBorderColor=#e1e0e0;" parent="Wmu0Wc-_Iajqv-uVDVYJ-2" source="Wmu0Wc-_Iajqv-uVDVYJ-6" target="Wmu0Wc-_Iajqv-uVDVYJ-28" edge="1">
                    <mxGeometry relative="1" as="geometry"/>
                </mxCell>
                <mxCell id="Wmu0Wc-_Iajqv-uVDVYJ-6" value="Crear o modificar acta de cierre en MIOBOX y Enviar para firma." style="points=[[0.25,0,0],[0.5,0,0],[0.75,0,0],[1,0.25,0],[1,0.5,0],[1,0.75,0],[0.75,1,0],[0.5,1,0],[0.25,1,0],[0,0.75,0],[0,0.5,0],[0,0.25,0]];shape=mxgraph.bpmn.task;whiteSpace=wrap;rectStyle=rounded;size=10;taskMarker=user;strokeWidth=1;fillColor=#dae8fc;strokeColor=#6c8ebf;fontColor=#171717;labelBorderColor=#e1e0e0;" parent="Wmu0Wc-_Iajqv-uVDVYJ-2" vertex="1">
                    <mxGeometry x="290" y="130" width="120" height="65" as="geometry"/>
                </mxCell>
                <mxCell id="Wmu0Wc-_Iajqv-uVDVYJ-7" style="edgeStyle=orthogonalEdgeStyle;rounded=1;orthogonalLoop=1;jettySize=auto;html=1;entryX=0.5;entryY=1;entryDx=0;entryDy=0;entryPerimeter=0;fontColor=#171717;labelBorderColor=#e1e0e0;" parent="Wmu0Wc-_Iajqv-uVDVYJ-2" source="Wmu0Wc-_Iajqv-uVDVYJ-8" target="Wmu0Wc-_Iajqv-uVDVYJ-6" edge="1">
                    <mxGeometry relative="1" as="geometry">
                        <mxPoint x="324.9999999999998" y="325" as="targetPoint"/>
                        <Array as="points">
                            <mxPoint x="165" y="380"/>
                            <mxPoint x="350" y="380"/>
                        </Array>
                    </mxGeometry>
                </mxCell>
                <mxCell id="Wmu0Wc-_Iajqv-uVDVYJ-8" value="Crear proyecto en PRISMA y asociar datos del proyecto" style="points=[[0.25,0,0],[0.5,0,0],[0.75,0,0],[1,0.25,0],[1,0.5,0],[1,0.75,0],[0.75,1,0],[0.5,1,0],[0.25,1,0],[0,0.75,0],[0,0.5,0],[0,0.25,0]];shape=mxgraph.bpmn.task;whiteSpace=wrap;rectStyle=rounded;size=10;taskMarker=user;strokeWidth=1;fillColor=#dae8fc;strokeColor=#6c8ebf;fontColor=#171717;labelBorderColor=#e1e0e0;" parent="Wmu0Wc-_Iajqv-uVDVYJ-2" vertex="1">
                    <mxGeometry x="105" y="290" width="120" height="70" as="geometry"/>
                </mxCell>
                <mxCell id="Wmu0Wc-_Iajqv-uVDVYJ-9" value="No" style="edgeStyle=orthogonalEdgeStyle;rounded=0;orthogonalLoop=1;jettySize=auto;html=1;fontColor=#171717;labelBorderColor=#e1e0e0;" parent="Wmu0Wc-_Iajqv-uVDVYJ-2" source="Wmu0Wc-_Iajqv-uVDVYJ-12" target="Wmu0Wc-_Iajqv-uVDVYJ-8" edge="1">
                    <mxGeometry relative="1" as="geometry"/>
                </mxCell>
                <mxCell id="Wmu0Wc-_Iajqv-uVDVYJ-10" style="edgeStyle=orthogonalEdgeStyle;rounded=0;orthogonalLoop=1;jettySize=auto;html=1;fontColor=#171717;labelBorderColor=#e1e0e0;" parent="Wmu0Wc-_Iajqv-uVDVYJ-2" source="Wmu0Wc-_Iajqv-uVDVYJ-12" target="Wmu0Wc-_Iajqv-uVDVYJ-6" edge="1">
                    <mxGeometry relative="1" as="geometry"/>
                </mxCell>
                <mxCell id="Wmu0Wc-_Iajqv-uVDVYJ-11" value="Si" style="edgeLabel;html=1;align=center;verticalAlign=middle;resizable=0;points=[];fontColor=#171717;labelBorderColor=#e1e0e0;" parent="Wmu0Wc-_Iajqv-uVDVYJ-10" vertex="1" connectable="0">
                    <mxGeometry x="-0.31" y="1" relative="1" as="geometry">
                        <mxPoint y="1" as="offset"/>
                    </mxGeometry>
                </mxCell>
                <mxCell id="Wmu0Wc-_Iajqv-uVDVYJ-12" value="El proyecto se&lt;br&gt;encuentra creado en PRISMA?" style="points=[[0.25,0.25,0],[0.5,0,0],[0.75,0.25,0],[1,0.5,0],[0.75,0.75,0],[0.5,1,0],[0.25,0.75,0],[0,0.5,0]];shape=mxgraph.bpmn.gateway2;html=1;verticalLabelPosition=bottom;labelBackgroundColor=#ffffff;verticalAlign=top;align=center;perimeter=rhombusPerimeter;outlineConnect=0;outline=none;symbol=none;gwType=exclusive;strokeWidth=1;fillColor=#fff2cc;strokeColor=#d6b656;fontColor=#171717;labelBorderColor=#e1e0e0;" parent="Wmu0Wc-_Iajqv-uVDVYJ-2" vertex="1">
                    <mxGeometry x="140" y="137.5" width="50" height="50" as="geometry"/>
                </mxCell>
                <mxCell id="Wmu0Wc-_Iajqv-uVDVYJ-87" style="edgeStyle=orthogonalEdgeStyle;curved=1;comic=0;orthogonalLoop=1;jettySize=auto;html=1;fontFamily=Helvetica;fontSize=22;fontColor=#171717;startSize=0;endSize=2;strokeColor=#1A1A1A;strokeWidth=1;fillColor=default;labelBorderColor=#e1e0e0;" parent="Wmu0Wc-_Iajqv-uVDVYJ-2" source="Wmu0Wc-_Iajqv-uVDVYJ-28" target="Wmu0Wc-_Iajqv-uVDVYJ-86" edge="1">
                    <mxGeometry relative="1" as="geometry"/>
                </mxCell>
                <mxCell id="Wmu0Wc-_Iajqv-uVDVYJ-28" value="El Backend establece Status como &quot;NEW&quot;" style="points=[[0.25,0,0],[0.5,0,0],[0.75,0,0],[1,0.25,0],[1,0.5,0],[1,0.75,0],[0.75,1,0],[0.5,1,0],[0.25,1,0],[0,0.75,0],[0,0.5,0],[0,0.25,0]];shape=mxgraph.bpmn.task;whiteSpace=wrap;rectStyle=rounded;size=10;taskMarker=service;strokeWidth=1;fillColor=#d5e8d4;strokeColor=#82b366;fontColor=#171717;labelBorderColor=#e1e0e0;" parent="Wmu0Wc-_Iajqv-uVDVYJ-2" vertex="1">
                    <mxGeometry x="430" y="130" width="120" height="60" as="geometry"/>
                </mxCell>
                <mxCell id="Wmu0Wc-_Iajqv-uVDVYJ-92" style="edgeStyle=orthogonalEdgeStyle;curved=1;comic=0;orthogonalLoop=1;jettySize=auto;html=1;entryX=0;entryY=0.5;entryDx=0;entryDy=0;entryPerimeter=0;fontFamily=Helvetica;fontSize=22;fontColor=#171717;startSize=0;endSize=2;strokeColor=#1A1A1A;strokeWidth=1;fillColor=default;labelBorderColor=#e1e0e0;" parent="Wmu0Wc-_Iajqv-uVDVYJ-2" source="Wmu0Wc-_Iajqv-uVDVYJ-86" target="Wmu0Wc-_Iajqv-uVDVYJ-88" edge="1">
                    <mxGeometry relative="1" as="geometry"/>
                </mxCell>
                <mxCell id="Wmu0Wc-_Iajqv-uVDVYJ-86" value="Se envia correo electronico al email del CONTRATISTA con link para firma" style="points=[[0.25,0,0],[0.5,0,0],[0.75,0,0],[1,0.25,0],[1,0.5,0],[1,0.75,0],[0.75,1,0],[0.5,1,0],[0.25,1,0],[0,0.75,0],[0,0.5,0],[0,0.25,0]];shape=mxgraph.bpmn.task;whiteSpace=wrap;rectStyle=rounded;size=10;taskMarker=service;strokeWidth=1;fillColor=#d5e8d4;strokeColor=#82b366;fontColor=#171717;labelBorderColor=#e1e0e0;" parent="Wmu0Wc-_Iajqv-uVDVYJ-2" vertex="1">
                    <mxGeometry x="590" y="130" width="120" height="60" as="geometry"/>
                </mxCell>
                <mxCell id="Wmu0Wc-_Iajqv-uVDVYJ-93" style="edgeStyle=orthogonalEdgeStyle;curved=1;comic=0;orthogonalLoop=1;jettySize=auto;html=1;fontFamily=Helvetica;fontSize=22;fontColor=#171717;startSize=0;endSize=2;strokeColor=#1A1A1A;strokeWidth=1;fillColor=default;labelBorderColor=#e1e0e0;" parent="Wmu0Wc-_Iajqv-uVDVYJ-2" source="Wmu0Wc-_Iajqv-uVDVYJ-88" target="Wmu0Wc-_Iajqv-uVDVYJ-90" edge="1">
                    <mxGeometry relative="1" as="geometry"/>
                </mxCell>
                <mxCell id="Wmu0Wc-_Iajqv-uVDVYJ-88" value="El representante del contratista recibe el link para firma" style="points=[[0.25,0,0],[0.5,0,0],[0.75,0,0],[1,0.25,0],[1,0.5,0],[1,0.75,0],[0.75,1,0],[0.5,1,0],[0.25,1,0],[0,0.75,0],[0,0.5,0],[0,0.25,0]];shape=mxgraph.bpmn.task;whiteSpace=wrap;rectStyle=rounded;size=10;taskMarker=user;strokeWidth=1;fillColor=#dae8fc;strokeColor=#6c8ebf;fontColor=#171717;labelBorderColor=#e1e0e0;" parent="Wmu0Wc-_Iajqv-uVDVYJ-2" vertex="1">
                    <mxGeometry x="750" y="130" width="120" height="60" as="geometry"/>
                </mxCell>
                <mxCell id="Wmu0Wc-_Iajqv-uVDVYJ-95" style="edgeStyle=orthogonalEdgeStyle;curved=1;comic=0;orthogonalLoop=1;jettySize=auto;html=1;entryX=0;entryY=0.5;entryDx=0;entryDy=0;entryPerimeter=0;fontFamily=Helvetica;fontSize=22;fontColor=#171717;startSize=0;endSize=2;strokeColor=#1A1A1A;strokeWidth=1;fillColor=default;labelBorderColor=#e1e0e0;" parent="Wmu0Wc-_Iajqv-uVDVYJ-2" source="Wmu0Wc-_Iajqv-uVDVYJ-90" target="Wmu0Wc-_Iajqv-uVDVYJ-94" edge="1">
                    <mxGeometry relative="1" as="geometry"/>
                </mxCell>
                <mxCell id="Wmu0Wc-_Iajqv-uVDVYJ-110" value="SI" style="edgeLabel;html=1;align=center;verticalAlign=middle;resizable=0;points=[];fontSize=22;fontFamily=Helvetica;fontColor=#171717;labelBorderColor=#e1e0e0;" parent="Wmu0Wc-_Iajqv-uVDVYJ-95" vertex="1" connectable="0">
                    <mxGeometry x="-0.232" y="1" relative="1" as="geometry">
                        <mxPoint as="offset"/>
                    </mxGeometry>
                </mxCell>
                <mxCell id="Wmu0Wc-_Iajqv-uVDVYJ-97" value="NO" style="edgeStyle=orthogonalEdgeStyle;curved=1;comic=0;orthogonalLoop=1;jettySize=auto;html=1;entryX=0.5;entryY=0;entryDx=0;entryDy=0;entryPerimeter=0;fontFamily=Helvetica;fontSize=22;fontColor=#171717;startSize=0;endSize=2;strokeColor=#1A1A1A;strokeWidth=1;fillColor=default;labelBorderColor=#e1e0e0;" parent="Wmu0Wc-_Iajqv-uVDVYJ-2" source="Wmu0Wc-_Iajqv-uVDVYJ-90" target="Wmu0Wc-_Iajqv-uVDVYJ-96" edge="1">
                    <mxGeometry relative="1" as="geometry"/>
                </mxCell>
                <mxCell id="Wmu0Wc-_Iajqv-uVDVYJ-90" value="EstÃ¡ de acuerdo con el acta?" style="points=[[0.25,0.25,0],[0.5,0,0],[0.75,0.25,0],[1,0.5,0],[0.75,0.75,0],[0.5,1,0],[0.25,0.75,0],[0,0.5,0]];shape=mxgraph.bpmn.gateway2;html=1;verticalLabelPosition=bottom;labelBackgroundColor=#ffffff;verticalAlign=top;align=center;perimeter=rhombusPerimeter;outlineConnect=0;outline=none;symbol=none;gwType=exclusive;strokeWidth=1;fillColor=#fff2cc;strokeColor=#d6b656;fontColor=#171717;labelBorderColor=#e1e0e0;" parent="Wmu0Wc-_Iajqv-uVDVYJ-2" vertex="1">
                    <mxGeometry x="920" y="135" width="50" height="50" as="geometry"/>
                </mxCell>
                <mxCell id="Wmu0Wc-_Iajqv-uVDVYJ-134" style="edgeStyle=orthogonalEdgeStyle;rounded=1;comic=0;orthogonalLoop=1;jettySize=auto;html=1;entryX=0;entryY=0.5;entryDx=0;entryDy=0;entryPerimeter=0;fontFamily=Helvetica;fontSize=22;fontColor=#171717;startSize=0;endSize=2;strokeColor=#1A1A1A;strokeWidth=1;fillColor=default;labelBorderColor=#e1e0e0;" parent="Wmu0Wc-_Iajqv-uVDVYJ-2" source="Wmu0Wc-_Iajqv-uVDVYJ-94" target="Wmu0Wc-_Iajqv-uVDVYJ-133" edge="1">
                    <mxGeometry relative="1" as="geometry"/>
                </mxCell>
                <mxCell id="Wmu0Wc-_Iajqv-uVDVYJ-94" value="Firmar y aceptar" style="points=[[0.25,0,0],[0.5,0,0],[0.75,0,0],[1,0.25,0],[1,0.5,0],[1,0.75,0],[0.75,1,0],[0.5,1,0],[0.25,1,0],[0,0.75,0],[0,0.5,0],[0,0.25,0]];shape=mxgraph.bpmn.task;whiteSpace=wrap;rectStyle=rounded;size=10;taskMarker=user;strokeWidth=1;fillColor=#dae8fc;strokeColor=#6c8ebf;fontColor=#171717;labelBorderColor=#e1e0e0;" parent="Wmu0Wc-_Iajqv-uVDVYJ-2" vertex="1">
                    <mxGeometry x="1028" y="130" width="120" height="60" as="geometry"/>
                </mxCell>
                <mxCell id="Wmu0Wc-_Iajqv-uVDVYJ-99" style="edgeStyle=orthogonalEdgeStyle;comic=0;orthogonalLoop=1;jettySize=auto;html=1;entryX=0.5;entryY=0;entryDx=0;entryDy=0;entryPerimeter=0;fontFamily=Helvetica;fontSize=22;fontColor=#171717;startSize=0;endSize=2;strokeColor=#1A1A1A;strokeWidth=1;fillColor=default;labelBorderColor=#e1e0e0;" parent="Wmu0Wc-_Iajqv-uVDVYJ-2" source="Wmu0Wc-_Iajqv-uVDVYJ-96" target="Wmu0Wc-_Iajqv-uVDVYJ-98" edge="1">
                    <mxGeometry relative="1" as="geometry"/>
                </mxCell>
                <mxCell id="Wmu0Wc-_Iajqv-uVDVYJ-96" value="Rechazar y colocar las observaciones." style="points=[[0.25,0,0],[0.5,0,0],[0.75,0,0],[1,0.25,0],[1,0.5,0],[1,0.75,0],[0.75,1,0],[0.5,1,0],[0.25,1,0],[0,0.75,0],[0,0.5,0],[0,0.25,0]];shape=mxgraph.bpmn.task;whiteSpace=wrap;rectStyle=rounded;size=10;taskMarker=user;strokeWidth=1;fillColor=#dae8fc;strokeColor=#6c8ebf;fontColor=#171717;labelBorderColor=#e1e0e0;" parent="Wmu0Wc-_Iajqv-uVDVYJ-2" vertex="1">
                    <mxGeometry x="885" y="250" width="120" height="60" as="geometry"/>
                </mxCell>
                <mxCell id="Wmu0Wc-_Iajqv-uVDVYJ-101" style="edgeStyle=orthogonalEdgeStyle;comic=0;orthogonalLoop=1;jettySize=auto;html=1;fontFamily=Helvetica;fontSize=22;fontColor=#171717;startSize=0;endSize=2;strokeColor=#1A1A1A;strokeWidth=1;fillColor=default;labelBorderColor=#e1e0e0;" parent="Wmu0Wc-_Iajqv-uVDVYJ-2" source="Wmu0Wc-_Iajqv-uVDVYJ-98" target="Wmu0Wc-_Iajqv-uVDVYJ-6" edge="1">
                    <mxGeometry relative="1" as="geometry"/>
                </mxCell>
                <mxCell id="Wmu0Wc-_Iajqv-uVDVYJ-98" value="El Backend establece Status como &quot;REJECTED&quot;" style="points=[[0.25,0,0],[0.5,0,0],[0.75,0,0],[1,0.25,0],[1,0.5,0],[1,0.75,0],[0.75,1,0],[0.5,1,0],[0.25,1,0],[0,0.75,0],[0,0.5,0],[0,0.25,0]];shape=mxgraph.bpmn.task;whiteSpace=wrap;rectStyle=rounded;size=10;taskMarker=service;strokeWidth=1;fillColor=#d5e8d4;strokeColor=#82b366;fontColor=#171717;labelBorderColor=#e1e0e0;" parent="Wmu0Wc-_Iajqv-uVDVYJ-2" vertex="1">
                    <mxGeometry x="877.5" y="350" width="135" height="60" as="geometry"/>
                </mxCell>
                <mxCell id="Wmu0Wc-_Iajqv-uVDVYJ-103" value="Se envia correo electronico al email del CLIENTE con link para firma" style="points=[[0.25,0,0],[0.5,0,0],[0.75,0,0],[1,0.25,0],[1,0.5,0],[1,0.75,0],[0.75,1,0],[0.5,1,0],[0.25,1,0],[0,0.75,0],[0,0.5,0],[0,0.25,0]];shape=mxgraph.bpmn.task;whiteSpace=wrap;rectStyle=rounded;size=10;taskMarker=service;strokeWidth=1;fillColor=#d5e8d4;strokeColor=#82b366;fontColor=#171717;labelBorderColor=#e1e0e0;" parent="Wmu0Wc-_Iajqv-uVDVYJ-2" vertex="1">
                    <mxGeometry x="1220" y="250" width="120" height="60" as="geometry"/>
                </mxCell>
                <mxCell id="Wmu0Wc-_Iajqv-uVDVYJ-135" style="edgeStyle=orthogonalEdgeStyle;rounded=1;comic=0;orthogonalLoop=1;jettySize=auto;html=1;fontFamily=Helvetica;fontSize=22;fontColor=#171717;startSize=0;endSize=2;strokeColor=#1A1A1A;strokeWidth=1;fillColor=default;labelBorderColor=#e1e0e0;" parent="Wmu0Wc-_Iajqv-uVDVYJ-2" source="Wmu0Wc-_Iajqv-uVDVYJ-133" target="Wmu0Wc-_Iajqv-uVDVYJ-103" edge="1">
                    <mxGeometry relative="1" as="geometry"/>
                </mxCell>
                <mxCell id="Wmu0Wc-_Iajqv-uVDVYJ-133" value="El Backend establece Status como &quot;SIGN_CONTRACTOR&quot;" style="points=[[0.25,0,0],[0.5,0,0],[0.75,0,0],[1,0.25,0],[1,0.5,0],[1,0.75,0],[0.75,1,0],[0.5,1,0],[0.25,1,0],[0,0.75,0],[0,0.5,0],[0,0.25,0]];shape=mxgraph.bpmn.task;whiteSpace=wrap;rectStyle=rounded;size=10;taskMarker=service;strokeWidth=1;fillColor=#d5e8d4;strokeColor=#82b366;fontColor=#171717;labelBorderColor=#e1e0e0;" parent="Wmu0Wc-_Iajqv-uVDVYJ-2" vertex="1">
                    <mxGeometry x="1212.5" y="130" width="135" height="60" as="geometry"/>
                </mxCell>
                <mxCell id="Wmu0Wc-_Iajqv-uVDVYJ-49" value="CLIENTE" style="swimlane;html=1;startSize=20;horizontal=0;strokeWidth=1;fillColor=#ffe6cc;strokeColor=#d79b00;fontColor=#171717;labelBorderColor=#e1e0e0;" parent="Wmu0Wc-_Iajqv-uVDVYJ-1" vertex="1">
                    <mxGeometry x="20" y="440" width="2140" height="320" as="geometry"/>
                </mxCell>
                <mxCell id="Wmu0Wc-_Iajqv-uVDVYJ-132" style="edgeStyle=orthogonalEdgeStyle;rounded=1;comic=0;orthogonalLoop=1;jettySize=auto;html=1;entryX=0;entryY=0.5;entryDx=0;entryDy=0;entryPerimeter=0;fontFamily=Helvetica;fontSize=22;fontColor=#171717;startSize=0;endSize=2;strokeColor=#1A1A1A;strokeWidth=1;fillColor=default;labelBorderColor=#e1e0e0;" parent="Wmu0Wc-_Iajqv-uVDVYJ-49" source="Wmu0Wc-_Iajqv-uVDVYJ-102" target="Wmu0Wc-_Iajqv-uVDVYJ-131" edge="1">
                    <mxGeometry relative="1" as="geometry"/>
                </mxCell>
                <mxCell id="Wmu0Wc-_Iajqv-uVDVYJ-102" value="Firmar y aceptar" style="points=[[0.25,0,0],[0.5,0,0],[0.75,0,0],[1,0.25,0],[1,0.5,0],[1,0.75,0],[0.75,1,0],[0.5,1,0],[0.25,1,0],[0,0.75,0],[0,0.5,0],[0,0.25,0]];shape=mxgraph.bpmn.task;whiteSpace=wrap;rectStyle=rounded;size=10;taskMarker=user;strokeWidth=1;fillColor=#dae8fc;strokeColor=#6c8ebf;fontColor=#171717;labelBorderColor=#e1e0e0;" parent="Wmu0Wc-_Iajqv-uVDVYJ-49" vertex="1">
                    <mxGeometry x="1410" y="47" width="120" height="70" as="geometry"/>
                </mxCell>
                <mxCell id="Wmu0Wc-_Iajqv-uVDVYJ-108" value="NO" style="edgeStyle=orthogonalEdgeStyle;rounded=1;comic=0;orthogonalLoop=1;jettySize=auto;html=1;entryX=1;entryY=0.5;entryDx=0;entryDy=0;entryPerimeter=0;fontFamily=Helvetica;fontSize=22;fontColor=#171717;startSize=0;endSize=2;strokeColor=#1A1A1A;strokeWidth=1;fillColor=default;labelBorderColor=#e1e0e0;" parent="Wmu0Wc-_Iajqv-uVDVYJ-49" source="Wmu0Wc-_Iajqv-uVDVYJ-105" target="Wmu0Wc-_Iajqv-uVDVYJ-106" edge="1">
                    <mxGeometry relative="1" as="geometry"/>
                </mxCell>
                <mxCell id="Wmu0Wc-_Iajqv-uVDVYJ-109" value="SI" style="edgeStyle=orthogonalEdgeStyle;rounded=1;comic=0;orthogonalLoop=1;jettySize=auto;html=1;entryX=0;entryY=0.5;entryDx=0;entryDy=0;entryPerimeter=0;fontFamily=Helvetica;fontSize=22;fontColor=#171717;startSize=0;endSize=2;strokeColor=#1A1A1A;strokeWidth=1;fillColor=default;labelBorderColor=#e1e0e0;" parent="Wmu0Wc-_Iajqv-uVDVYJ-49" source="Wmu0Wc-_Iajqv-uVDVYJ-105" target="Wmu0Wc-_Iajqv-uVDVYJ-102" edge="1">
                    <mxGeometry relative="1" as="geometry"/>
                </mxCell>
                <mxCell id="Wmu0Wc-_Iajqv-uVDVYJ-105" value="EstÃ¡ de acuerdo con el acta?" style="points=[[0.25,0.25,0],[0.5,0,0],[0.75,0.25,0],[1,0.5,0],[0.75,0.75,0],[0.5,1,0],[0.25,0.75,0],[0,0.5,0]];shape=mxgraph.bpmn.gateway2;html=1;verticalLabelPosition=bottom;labelBackgroundColor=#ffffff;verticalAlign=top;align=center;perimeter=rhombusPerimeter;outlineConnect=0;outline=none;symbol=none;gwType=exclusive;strokeWidth=1;fillColor=#fff2cc;strokeColor=#d6b656;fontColor=#171717;labelBorderColor=#e1e0e0;" parent="Wmu0Wc-_Iajqv-uVDVYJ-49" vertex="1">
                    <mxGeometry x="1255" y="57" width="50" height="50" as="geometry"/>
                </mxCell>
                <mxCell id="Wmu0Wc-_Iajqv-uVDVYJ-116" style="edgeStyle=orthogonalEdgeStyle;rounded=1;comic=0;orthogonalLoop=1;jettySize=auto;html=1;entryX=1;entryY=0.5;entryDx=0;entryDy=0;entryPerimeter=0;fontFamily=Helvetica;fontSize=22;fontColor=#171717;startSize=0;endSize=2;strokeColor=#1A1A1A;strokeWidth=1;fillColor=default;labelBorderColor=#e1e0e0;" parent="Wmu0Wc-_Iajqv-uVDVYJ-49" source="Wmu0Wc-_Iajqv-uVDVYJ-106" target="Wmu0Wc-_Iajqv-uVDVYJ-113" edge="1">
                    <mxGeometry relative="1" as="geometry"/>
                </mxCell>
                <mxCell id="Wmu0Wc-_Iajqv-uVDVYJ-106" value="Rechazar y colocar las observaciones." style="points=[[0.25,0,0],[0.5,0,0],[0.75,0,0],[1,0.25,0],[1,0.5,0],[1,0.75,0],[0.75,1,0],[0.5,1,0],[0.25,1,0],[0,0.75,0],[0,0.5,0],[0,0.25,0]];shape=mxgraph.bpmn.task;whiteSpace=wrap;rectStyle=rounded;size=10;taskMarker=user;strokeWidth=1;fillColor=#dae8fc;strokeColor=#6c8ebf;fontColor=#171717;labelBorderColor=#e1e0e0;" parent="Wmu0Wc-_Iajqv-uVDVYJ-49" vertex="1">
                    <mxGeometry x="1050" y="52" width="120" height="60" as="geometry"/>
                </mxCell>
                <mxCell id="Wmu0Wc-_Iajqv-uVDVYJ-113" value="Se envia correo electronico al email del CONTRATISTA con el motivo del rechazo" style="points=[[0.25,0,0],[0.5,0,0],[0.75,0,0],[1,0.25,0],[1,0.5,0],[1,0.75,0],[0.75,1,0],[0.5,1,0],[0.25,1,0],[0,0.75,0],[0,0.5,0],[0,0.25,0]];shape=mxgraph.bpmn.task;whiteSpace=wrap;rectStyle=rounded;size=10;taskMarker=service;strokeWidth=1;fillColor=#d5e8d4;strokeColor=#82b366;fontColor=#171717;labelBorderColor=#e1e0e0;" parent="Wmu0Wc-_Iajqv-uVDVYJ-49" vertex="1">
                    <mxGeometry x="875" y="52" width="140" height="60" as="geometry"/>
                </mxCell>
                <mxCell id="Wmu0Wc-_Iajqv-uVDVYJ-138" style="edgeStyle=orthogonalEdgeStyle;rounded=1;comic=0;orthogonalLoop=1;jettySize=auto;html=1;fontFamily=Helvetica;fontSize=22;fontColor=#171717;startSize=0;endSize=2;strokeColor=#1A1A1A;strokeWidth=1;fillColor=default;exitX=0.5;exitY=1;exitDx=0;exitDy=0;exitPerimeter=0;labelBorderColor=#e1e0e0;" parent="Wmu0Wc-_Iajqv-uVDVYJ-49" source="Wmu0Wc-_Iajqv-uVDVYJ-120" target="Wmu0Wc-_Iajqv-uVDVYJ-125" edge="1">
                    <mxGeometry relative="1" as="geometry"/>
                </mxCell>
                <mxCell id="Wmu0Wc-_Iajqv-uVDVYJ-120" value="Se envia mensaje de confirmacion de acta recibida por correo al CLIENTE,&amp;nbsp; CONTRATISTA y DIRECTOR PROYECTOS (INTERNO)" style="points=[[0.25,0,0],[0.5,0,0],[0.75,0,0],[1,0.25,0],[1,0.5,0],[1,0.75,0],[0.75,1,0],[0.5,1,0],[0.25,1,0],[0,0.75,0],[0,0.5,0],[0,0.25,0]];shape=mxgraph.bpmn.task;whiteSpace=wrap;rectStyle=rounded;size=10;taskMarker=service;strokeWidth=1;fillColor=#d5e8d4;strokeColor=#82b366;fontColor=#171717;labelBorderColor=#e1e0e0;" parent="Wmu0Wc-_Iajqv-uVDVYJ-49" vertex="1">
                    <mxGeometry x="1760" y="27" width="140" height="110" as="geometry"/>
                </mxCell>
                <mxCell id="Wmu0Wc-_Iajqv-uVDVYJ-125" value="Es una entrega parcial?" style="points=[[0.25,0.25,0],[0.5,0,0],[0.75,0.25,0],[1,0.5,0],[0.75,0.75,0],[0.5,1,0],[0.25,0.75,0],[0,0.5,0]];shape=mxgraph.bpmn.gateway2;html=1;verticalLabelPosition=bottom;labelBackgroundColor=#ffffff;verticalAlign=top;align=center;perimeter=rhombusPerimeter;outlineConnect=0;outline=none;symbol=none;gwType=exclusive;strokeWidth=1;fillColor=#fff2cc;strokeColor=#d6b656;fontColor=#171717;labelBorderColor=#e1e0e0;" parent="Wmu0Wc-_Iajqv-uVDVYJ-49" vertex="1">
                    <mxGeometry x="1805" y="230" width="50" height="50" as="geometry"/>
                </mxCell>
                <mxCell id="Wmu0Wc-_Iajqv-uVDVYJ-137" style="edgeStyle=orthogonalEdgeStyle;comic=0;orthogonalLoop=1;jettySize=auto;html=1;fontFamily=Helvetica;fontSize=22;fontColor=#171717;startSize=0;endSize=2;strokeColor=#1A1A1A;strokeWidth=1;fillColor=default;rounded=1;labelBorderColor=#e1e0e0;" parent="Wmu0Wc-_Iajqv-uVDVYJ-49" source="Wmu0Wc-_Iajqv-uVDVYJ-131" target="Wmu0Wc-_Iajqv-uVDVYJ-120" edge="1">
                    <mxGeometry relative="1" as="geometry"/>
                </mxCell>
                <mxCell id="Wmu0Wc-_Iajqv-uVDVYJ-131" value="El Backend establece Status como &quot;SIGN_CLIENT&quot;" style="points=[[0.25,0,0],[0.5,0,0],[0.75,0,0],[1,0.25,0],[1,0.5,0],[1,0.75,0],[0.75,1,0],[0.5,1,0],[0.25,1,0],[0,0.75,0],[0,0.5,0],[0,0.25,0]];shape=mxgraph.bpmn.task;whiteSpace=wrap;rectStyle=rounded;size=10;taskMarker=service;strokeWidth=1;fillColor=#d5e8d4;strokeColor=#82b366;fontColor=#171717;labelBorderColor=#e1e0e0;" parent="Wmu0Wc-_Iajqv-uVDVYJ-49" vertex="1">
                    <mxGeometry x="1560" y="52" width="135" height="60" as="geometry"/>
                </mxCell>
                <mxCell id="Wmu0Wc-_Iajqv-uVDVYJ-61" value="DIRECTOR DE PROJECTOS" style="swimlane;html=1;startSize=20;fontStyle=1;collapsible=0;horizontal=0;swimlaneLine=1;swimlaneFillColor=none;strokeWidth=2;fillColor=#dae8fc;strokeColor=#6c8ebf;fontColor=#171717;labelBorderColor=#e1e0e0;" parent="Wmu0Wc-_Iajqv-uVDVYJ-1" vertex="1">
                    <mxGeometry x="20" y="760" width="2140" height="340" as="geometry"/>
                </mxCell>
                <mxCell id="Wmu0Wc-_Iajqv-uVDVYJ-130" style="edgeStyle=orthogonalEdgeStyle;rounded=1;comic=0;orthogonalLoop=1;jettySize=auto;html=1;entryX=0.5;entryY=0;entryDx=0;entryDy=0;entryPerimeter=0;fontFamily=Helvetica;fontSize=22;fontColor=#171717;startSize=0;endSize=2;strokeColor=#1A1A1A;strokeWidth=1;fillColor=default;labelBorderColor=#e1e0e0;" parent="Wmu0Wc-_Iajqv-uVDVYJ-61" source="Wmu0Wc-_Iajqv-uVDVYJ-123" target="Wmu0Wc-_Iajqv-uVDVYJ-129" edge="1">
                    <mxGeometry relative="1" as="geometry"/>
                </mxCell>
                <mxCell id="Wmu0Wc-_Iajqv-uVDVYJ-123" value="Revisar informacion y compromisos en caso de ser entrega parcial." style="points=[[0.25,0,0],[0.5,0,0],[0.75,0,0],[1,0.25,0],[1,0.5,0],[1,0.75,0],[0.75,1,0],[0.5,1,0],[0.25,1,0],[0,0.75,0],[0,0.5,0],[0,0.25,0]];shape=mxgraph.bpmn.task;whiteSpace=wrap;rectStyle=rounded;size=10;taskMarker=user;strokeWidth=1;fillColor=#dae8fc;strokeColor=#6c8ebf;fontColor=#171717;labelBorderColor=#e1e0e0;" parent="Wmu0Wc-_Iajqv-uVDVYJ-61" vertex="1">
                    <mxGeometry x="1590" y="70" width="120" height="70" as="geometry"/>
                </mxCell>
                <mxCell id="Wmu0Wc-_Iajqv-uVDVYJ-129" value="Visto bueno y aceptacion" style="points=[[0.25,0,0],[0.5,0,0],[0.75,0,0],[1,0.25,0],[1,0.5,0],[1,0.75,0],[0.75,1,0],[0.5,1,0],[0.25,1,0],[0,0.75,0],[0,0.5,0],[0,0.25,0]];shape=mxgraph.bpmn.task;whiteSpace=wrap;rectStyle=rounded;size=10;taskMarker=user;strokeWidth=1;fillColor=#dae8fc;strokeColor=#6c8ebf;fontColor=#171717;labelBorderColor=#e1e0e0;" parent="Wmu0Wc-_Iajqv-uVDVYJ-61" vertex="1">
                    <mxGeometry x="1590" y="210" width="120" height="70" as="geometry"/>
                </mxCell>
                <mxCell id="Wmu0Wc-_Iajqv-uVDVYJ-117" style="edgeStyle=orthogonalEdgeStyle;rounded=1;comic=0;orthogonalLoop=1;jettySize=auto;html=1;fontFamily=Helvetica;fontSize=22;fontColor=#171717;startSize=0;endSize=2;strokeColor=#1A1A1A;strokeWidth=1;fillColor=default;labelBorderColor=#e1e0e0;" parent="Wmu0Wc-_Iajqv-uVDVYJ-1" source="Wmu0Wc-_Iajqv-uVDVYJ-113" target="Wmu0Wc-_Iajqv-uVDVYJ-98" edge="1">
                    <mxGeometry relative="1" as="geometry"/>
                </mxCell>
                <mxCell id="Wmu0Wc-_Iajqv-uVDVYJ-122" value="MIOBOX" style="swimlane;html=1;startSize=20;fontStyle=1;collapsible=0;horizontal=0;swimlaneLine=1;swimlaneFillColor=none;strokeWidth=2;fillColor=#dae8fc;strokeColor=#6c8ebf;fontColor=#171717;labelBorderColor=#e1e0e0;" parent="Wmu0Wc-_Iajqv-uVDVYJ-1" vertex="1">
                    <mxGeometry x="20" y="1100" width="2140" height="290" as="geometry"/>
                </mxCell>
                <mxCell id="Wmu0Wc-_Iajqv-uVDVYJ-140" value="El Backend establece Status como &quot;CLOSED&quot;" style="points=[[0.25,0,0],[0.5,0,0],[0.75,0,0],[1,0.25,0],[1,0.5,0],[1,0.75,0],[0.75,1,0],[0.5,1,0],[0.25,1,0],[0,0.75,0],[0,0.5,0],[0,0.25,0]];shape=mxgraph.bpmn.task;whiteSpace=wrap;rectStyle=rounded;size=10;taskMarker=service;strokeWidth=1;fillColor=#d5e8d4;strokeColor=#82b366;fontColor=#171717;labelBorderColor=#e1e0e0;" parent="Wmu0Wc-_Iajqv-uVDVYJ-122" vertex="1">
                    <mxGeometry x="1762.5" y="80" width="135" height="60" as="geometry"/>
                </mxCell>
                <mxCell id="Wmu0Wc-_Iajqv-uVDVYJ-149" style="edgeStyle=orthogonalEdgeStyle;rounded=1;comic=0;orthogonalLoop=1;jettySize=auto;html=1;fontFamily=Helvetica;fontSize=22;fontColor=#171717;startSize=0;endSize=2;strokeColor=#1A1A1A;strokeWidth=1;fillColor=default;labelBorderColor=#e1e0e0;" parent="Wmu0Wc-_Iajqv-uVDVYJ-122" source="Wmu0Wc-_Iajqv-uVDVYJ-144" target="Wmu0Wc-_Iajqv-uVDVYJ-142" edge="1">
                    <mxGeometry relative="1" as="geometry"/>
                </mxCell>
                <mxCell id="Wmu0Wc-_Iajqv-uVDVYJ-144" value="El Backend envia aviso a CONTABILIDAD via correo." style="points=[[0.25,0,0],[0.5,0,0],[0.75,0,0],[1,0.25,0],[1,0.5,0],[1,0.75,0],[0.75,1,0],[0.5,1,0],[0.25,1,0],[0,0.75,0],[0,0.5,0],[0,0.25,0]];shape=mxgraph.bpmn.task;whiteSpace=wrap;rectStyle=rounded;size=10;taskMarker=service;strokeWidth=1;fillColor=#d5e8d4;strokeColor=#82b366;fontColor=#171717;labelBorderColor=#e1e0e0;" parent="Wmu0Wc-_Iajqv-uVDVYJ-122" vertex="1">
                    <mxGeometry x="1755" y="180" width="150" height="60" as="geometry"/>
                </mxCell>
                <mxCell id="Wmu0Wc-_Iajqv-uVDVYJ-145" style="edgeStyle=orthogonalEdgeStyle;rounded=1;comic=0;orthogonalLoop=1;jettySize=auto;html=1;fontFamily=Helvetica;fontSize=22;fontColor=#171717;startSize=0;endSize=2;strokeColor=#1A1A1A;strokeWidth=1;fillColor=default;labelBorderColor=#e1e0e0;" parent="Wmu0Wc-_Iajqv-uVDVYJ-122" source="Wmu0Wc-_Iajqv-uVDVYJ-140" target="Wmu0Wc-_Iajqv-uVDVYJ-144" edge="1">
                    <mxGeometry relative="1" as="geometry"/>
                </mxCell>
                <mxCell id="Wmu0Wc-_Iajqv-uVDVYJ-142" value="Fin" style="points=[[0.145,0.145,0],[0.5,0,0],[0.855,0.145,0],[1,0.5,0],[0.855,0.855,0],[0.5,1,0],[0.145,0.855,0],[0,0.5,0]];shape=mxgraph.bpmn.event;html=1;verticalLabelPosition=bottom;labelBackgroundColor=#ffffff;verticalAlign=top;align=center;perimeter=ellipsePerimeter;outlineConnect=0;aspect=fixed;outline=end;symbol=terminate2;strokeWidth=1;fillColor=#f8cecc;strokeColor=#b85450;fontColor=#171717;labelBorderColor=#e1e0e0;" parent="Wmu0Wc-_Iajqv-uVDVYJ-122" vertex="1">
                    <mxGeometry x="2040" y="185" width="50" height="50" as="geometry"/>
                </mxCell>
                <mxCell id="Wmu0Wc-_Iajqv-uVDVYJ-127" style="edgeStyle=orthogonalEdgeStyle;rounded=1;comic=0;orthogonalLoop=1;jettySize=auto;html=1;entryX=0.5;entryY=0;entryDx=0;entryDy=0;entryPerimeter=0;fontFamily=Helvetica;fontSize=22;fontColor=#171717;startSize=0;endSize=2;strokeColor=#1A1A1A;strokeWidth=1;fillColor=default;labelBorderColor=#e1e0e0;" parent="Wmu0Wc-_Iajqv-uVDVYJ-1" source="Wmu0Wc-_Iajqv-uVDVYJ-125" target="Wmu0Wc-_Iajqv-uVDVYJ-123" edge="1">
                    <mxGeometry relative="1" as="geometry"/>
                </mxCell>
                <mxCell id="Wmu0Wc-_Iajqv-uVDVYJ-128" value="SI" style="edgeLabel;html=1;align=center;verticalAlign=middle;resizable=0;points=[];fontSize=22;fontFamily=Helvetica;fontColor=#171717;labelBorderColor=#e1e0e0;" parent="Wmu0Wc-_Iajqv-uVDVYJ-127" vertex="1" connectable="0">
                    <mxGeometry x="0.2952" y="3" relative="1" as="geometry">
                        <mxPoint as="offset"/>
                    </mxGeometry>
                </mxCell>
                <mxCell id="Wmu0Wc-_Iajqv-uVDVYJ-136" style="edgeStyle=orthogonalEdgeStyle;rounded=1;comic=0;orthogonalLoop=1;jettySize=auto;html=1;entryX=0.5;entryY=0;entryDx=0;entryDy=0;entryPerimeter=0;fontFamily=Helvetica;fontSize=22;fontColor=#171717;startSize=0;endSize=2;strokeColor=#1A1A1A;strokeWidth=1;fillColor=default;exitX=0.5;exitY=1;exitDx=0;exitDy=0;exitPerimeter=0;labelBorderColor=#e1e0e0;" parent="Wmu0Wc-_Iajqv-uVDVYJ-1" source="Wmu0Wc-_Iajqv-uVDVYJ-103" target="Wmu0Wc-_Iajqv-uVDVYJ-105" edge="1">
                    <mxGeometry relative="1" as="geometry"/>
                </mxCell>
                <mxCell id="Wmu0Wc-_Iajqv-uVDVYJ-141" value="NO" style="edgeStyle=orthogonalEdgeStyle;rounded=1;comic=0;orthogonalLoop=1;jettySize=auto;html=1;fontFamily=Helvetica;fontSize=22;fontColor=#171717;startSize=0;endSize=2;strokeColor=#1A1A1A;strokeWidth=1;fillColor=default;labelBorderColor=#e1e0e0;" parent="Wmu0Wc-_Iajqv-uVDVYJ-1" source="Wmu0Wc-_Iajqv-uVDVYJ-125" target="Wmu0Wc-_Iajqv-uVDVYJ-140" edge="1">
                    <mxGeometry relative="1" as="geometry"/>
                </mxCell>
                <mxCell id="Wmu0Wc-_Iajqv-uVDVYJ-150" style="edgeStyle=orthogonalEdgeStyle;rounded=1;comic=0;orthogonalLoop=1;jettySize=auto;html=1;entryX=0;entryY=0.5;entryDx=0;entryDy=0;entryPerimeter=0;fontFamily=Helvetica;fontSize=22;fontColor=#171717;startSize=0;endSize=2;strokeColor=#1A1A1A;strokeWidth=1;fillColor=default;exitX=0.5;exitY=1;exitDx=0;exitDy=0;exitPerimeter=0;labelBorderColor=#e1e0e0;" parent="Wmu0Wc-_Iajqv-uVDVYJ-1" source="Wmu0Wc-_Iajqv-uVDVYJ-129" target="Wmu0Wc-_Iajqv-uVDVYJ-140" edge="1">
                    <mxGeometry relative="1" as="geometry"/>
                </mxCell>
                <mxCell id="Wmu0Wc-_Iajqv-uVDVYJ-15" style="edgeStyle=orthogonalEdgeStyle;rounded=0;orthogonalLoop=1;jettySize=auto;html=1;entryX=0;entryY=0.5;entryDx=0;entryDy=0;entryPerimeter=0;" parent="1" source="Wmu0Wc-_Iajqv-uVDVYJ-16" target="Wmu0Wc-_Iajqv-uVDVYJ-19" edge="1">
                    <mxGeometry relative="1" as="geometry"/>
                </mxCell>
                <mxCell id="Wmu0Wc-_Iajqv-uVDVYJ-16" value="Establecer receta y cantidades a producir" style="points=[[0.25,0,0],[0.5,0,0],[0.75,0,0],[1,0.25,0],[1,0.5,0],[1,0.75,0],[0.75,1,0],[0.5,1,0],[0.25,1,0],[0,0.75,0],[0,0.5,0],[0,0.25,0]];shape=mxgraph.bpmn.task;whiteSpace=wrap;rectStyle=rounded;size=10;taskMarker=user;strokeWidth=1;fillColor=#dae8fc;strokeColor=#6c8ebf;" parent="1" vertex="1">
                    <mxGeometry x="1040" y="-560" width="120" height="60" as="geometry"/>
                </mxCell>
                <mxCell id="Wmu0Wc-_Iajqv-uVDVYJ-17" value="No" style="edgeStyle=orthogonalEdgeStyle;rounded=0;orthogonalLoop=1;jettySize=auto;html=1;entryX=0;entryY=0.5;entryDx=0;entryDy=0;entryPerimeter=0;" parent="1" source="Wmu0Wc-_Iajqv-uVDVYJ-19" target="Wmu0Wc-_Iajqv-uVDVYJ-24" edge="1">
                    <mxGeometry relative="1" as="geometry">
                        <Array as="points">
                            <mxPoint x="1235" y="-630"/>
                        </Array>
                    </mxGeometry>
                </mxCell>
                <mxCell id="Wmu0Wc-_Iajqv-uVDVYJ-18" value="Si" style="edgeStyle=orthogonalEdgeStyle;rounded=0;orthogonalLoop=1;jettySize=auto;html=1;" parent="1" source="Wmu0Wc-_Iajqv-uVDVYJ-19" target="Wmu0Wc-_Iajqv-uVDVYJ-21" edge="1">
                    <mxGeometry relative="1" as="geometry"/>
                </mxCell>
                <mxCell id="Wmu0Wc-_Iajqv-uVDVYJ-19" value="UtilizarÃ¡ receta&lt;br&gt;precargada?" style="points=[[0.25,0.25,0],[0.5,0,0],[0.75,0.25,0],[1,0.5,0],[0.75,0.75,0],[0.5,1,0],[0.25,0.75,0],[0,0.5,0]];shape=mxgraph.bpmn.gateway2;html=1;verticalLabelPosition=bottom;labelBackgroundColor=#ffffff;verticalAlign=top;align=center;perimeter=rhombusPerimeter;outlineConnect=0;outline=none;symbol=none;gwType=exclusive;strokeWidth=1;fillColor=#fff2cc;strokeColor=#d6b656;" parent="1" vertex="1">
                    <mxGeometry x="1210" y="-555" width="50" height="50" as="geometry"/>
                </mxCell>
                <mxCell id="Wmu0Wc-_Iajqv-uVDVYJ-20" style="edgeStyle=orthogonalEdgeStyle;rounded=1;orthogonalLoop=1;jettySize=auto;html=1;entryX=0;entryY=0.5;entryDx=0;entryDy=0;entryPerimeter=0;exitX=0.5;exitY=1;exitDx=0;exitDy=0;exitPerimeter=0;" parent="1" source="Wmu0Wc-_Iajqv-uVDVYJ-21" target="Wmu0Wc-_Iajqv-uVDVYJ-32" edge="1">
                    <mxGeometry relative="1" as="geometry"/>
                </mxCell>
                <mxCell id="Wmu0Wc-_Iajqv-uVDVYJ-21" value="Establecer receta y cantidades a producir" style="points=[[0.25,0,0],[0.5,0,0],[0.75,0,0],[1,0.25,0],[1,0.5,0],[1,0.75,0],[0.75,1,0],[0.5,1,0],[0.25,1,0],[0,0.75,0],[0,0.5,0],[0,0.25,0]];shape=mxgraph.bpmn.task;whiteSpace=wrap;rectStyle=rounded;size=10;taskMarker=user;strokeWidth=1;fillColor=#dae8fc;strokeColor=#6c8ebf;" parent="1" vertex="1">
                    <mxGeometry x="1175" y="-420" width="120" height="60" as="geometry"/>
                </mxCell>
                <mxCell id="Wmu0Wc-_Iajqv-uVDVYJ-22" value="No" style="edgeStyle=orthogonalEdgeStyle;rounded=0;orthogonalLoop=1;jettySize=auto;html=1;entryX=0;entryY=0.5;entryDx=0;entryDy=0;entryPerimeter=0;" parent="1" source="Wmu0Wc-_Iajqv-uVDVYJ-24" edge="1">
                    <mxGeometry relative="1" as="geometry">
                        <mxPoint x="1380" y="-630" as="targetPoint"/>
                    </mxGeometry>
                </mxCell>
                <mxCell id="Wmu0Wc-_Iajqv-uVDVYJ-23" value="Si" style="edgeStyle=orthogonalEdgeStyle;rounded=1;orthogonalLoop=1;jettySize=auto;html=1;entryX=0.25;entryY=0;entryDx=0;entryDy=0;entryPerimeter=0;" parent="1" source="Wmu0Wc-_Iajqv-uVDVYJ-24" target="Wmu0Wc-_Iajqv-uVDVYJ-30" edge="1">
                    <mxGeometry relative="1" as="geometry"/>
                </mxCell>
                <mxCell id="Wmu0Wc-_Iajqv-uVDVYJ-24" value="ModificarÃ¡ una&lt;br&gt;receta?" style="points=[[0.25,0.25,0],[0.5,0,0],[0.75,0.25,0],[1,0.5,0],[0.75,0.75,0],[0.5,1,0],[0.25,0.75,0],[0,0.5,0]];shape=mxgraph.bpmn.gateway2;html=1;verticalLabelPosition=bottom;labelBackgroundColor=#ffffff;verticalAlign=top;align=center;perimeter=rhombusPerimeter;outlineConnect=0;outline=none;symbol=none;gwType=exclusive;strokeWidth=1;fillColor=#fff2cc;strokeColor=#d6b656;" parent="1" vertex="1">
                    <mxGeometry x="1270" y="-655" width="50" height="50" as="geometry"/>
                </mxCell>
                <mxCell id="Wmu0Wc-_Iajqv-uVDVYJ-26" value="Crear una receta temporal" style="points=[[0.25,0,0],[0.5,0,0],[0.75,0,0],[1,0.25,0],[1,0.5,0],[1,0.75,0],[0.75,1,0],[0.5,1,0],[0.25,1,0],[0,0.75,0],[0,0.5,0],[0,0.25,0]];shape=mxgraph.bpmn.task;whiteSpace=wrap;rectStyle=rounded;size=10;taskMarker=user;strokeWidth=1;fillColor=#dae8fc;strokeColor=#6c8ebf;" parent="1" vertex="1">
                    <mxGeometry x="1245" y="-660" width="120" height="60" as="geometry"/>
                </mxCell>
                <mxCell id="Wmu0Wc-_Iajqv-uVDVYJ-29" style="edgeStyle=orthogonalEdgeStyle;rounded=1;orthogonalLoop=1;jettySize=auto;html=1;entryX=0.5;entryY=0;entryDx=0;entryDy=0;entryPerimeter=0;" parent="1" source="Wmu0Wc-_Iajqv-uVDVYJ-30" target="Wmu0Wc-_Iajqv-uVDVYJ-32" edge="1">
                    <mxGeometry relative="1" as="geometry"/>
                </mxCell>
                <mxCell id="Wmu0Wc-_Iajqv-uVDVYJ-30" value="Modificar receta" style="points=[[0.25,0,0],[0.5,0,0],[0.75,0,0],[1,0.25,0],[1,0.5,0],[1,0.75,0],[0.75,1,0],[0.5,1,0],[0.25,1,0],[0,0.75,0],[0,0.5,0],[0,0.25,0]];shape=mxgraph.bpmn.task;whiteSpace=wrap;rectStyle=rounded;size=10;taskMarker=user;strokeWidth=1;fillColor=#dae8fc;strokeColor=#6c8ebf;" parent="1" vertex="1">
                    <mxGeometry x="1320" y="-505" width="120" height="60" as="geometry"/>
                </mxCell>
                <mxCell id="Wmu0Wc-_Iajqv-uVDVYJ-31" style="edgeStyle=orthogonalEdgeStyle;rounded=1;orthogonalLoop=1;jettySize=auto;html=1;entryX=0;entryY=0.5;entryDx=0;entryDy=0;entryPerimeter=0;" parent="1" source="Wmu0Wc-_Iajqv-uVDVYJ-32" target="Wmu0Wc-_Iajqv-uVDVYJ-34" edge="1">
                    <mxGeometry relative="1" as="geometry"/>
                </mxCell>
                <mxCell id="Wmu0Wc-_Iajqv-uVDVYJ-32" value="Definir datos de programaciÃ³n" style="points=[[0.25,0,0],[0.5,0,0],[0.75,0,0],[1,0.25,0],[1,0.5,0],[1,0.75,0],[0.75,1,0],[0.5,1,0],[0.25,1,0],[0,0.75,0],[0,0.5,0],[0,0.25,0]];shape=mxgraph.bpmn.task;whiteSpace=wrap;rectStyle=rounded;size=10;taskMarker=user;strokeWidth=1;fillColor=#dae8fc;strokeColor=#6c8ebf;" parent="1" vertex="1">
                    <mxGeometry x="1320" y="-340" width="120" height="60" as="geometry"/>
                </mxCell>
                <mxCell id="Wmu0Wc-_Iajqv-uVDVYJ-33" style="edgeStyle=orthogonalEdgeStyle;rounded=1;orthogonalLoop=1;jettySize=auto;html=1;entryX=0;entryY=0.5;entryDx=0;entryDy=0;entryPerimeter=0;" parent="1" source="Wmu0Wc-_Iajqv-uVDVYJ-34" target="Wmu0Wc-_Iajqv-uVDVYJ-36" edge="1">
                    <mxGeometry relative="1" as="geometry"/>
                </mxCell>
                <mxCell id="Wmu0Wc-_Iajqv-uVDVYJ-34" value="Definir linea de producciÃ³n" style="points=[[0.25,0,0],[0.5,0,0],[0.75,0,0],[1,0.25,0],[1,0.5,0],[1,0.75,0],[0.75,1,0],[0.5,1,0],[0.25,1,0],[0,0.75,0],[0,0.5,0],[0,0.25,0]];shape=mxgraph.bpmn.task;whiteSpace=wrap;rectStyle=rounded;size=10;taskMarker=user;strokeWidth=1;fillColor=#dae8fc;strokeColor=#6c8ebf;" parent="1" vertex="1">
                    <mxGeometry x="1510" y="-340" width="120" height="60" as="geometry"/>
                </mxCell>
                <mxCell id="Wmu0Wc-_Iajqv-uVDVYJ-35" style="edgeStyle=orthogonalEdgeStyle;rounded=1;orthogonalLoop=1;jettySize=auto;html=1;entryX=0;entryY=0.5;entryDx=0;entryDy=0;entryPerimeter=0;" parent="1" source="Wmu0Wc-_Iajqv-uVDVYJ-36" target="Wmu0Wc-_Iajqv-uVDVYJ-39" edge="1">
                    <mxGeometry relative="1" as="geometry"/>
                </mxCell>
                <mxCell id="Wmu0Wc-_Iajqv-uVDVYJ-36" value="Definir un estado del plan" style="points=[[0.25,0,0],[0.5,0,0],[0.75,0,0],[1,0.25,0],[1,0.5,0],[1,0.75,0],[0.75,1,0],[0.5,1,0],[0.25,1,0],[0,0.75,0],[0,0.5,0],[0,0.25,0]];shape=mxgraph.bpmn.task;whiteSpace=wrap;rectStyle=rounded;size=10;taskMarker=user;strokeWidth=1;fillColor=#dae8fc;strokeColor=#6c8ebf;" parent="1" vertex="1">
                    <mxGeometry x="1670" y="-340" width="120" height="60" as="geometry"/>
                </mxCell>
                <mxCell id="Wmu0Wc-_Iajqv-uVDVYJ-37" value="No" style="edgeStyle=orthogonalEdgeStyle;rounded=1;orthogonalLoop=1;jettySize=auto;html=1;entryX=0;entryY=0.5;entryDx=0;entryDy=0;entryPerimeter=0;" parent="1" source="Wmu0Wc-_Iajqv-uVDVYJ-39" target="Wmu0Wc-_Iajqv-uVDVYJ-41" edge="1">
                    <mxGeometry relative="1" as="geometry"/>
                </mxCell>
                <mxCell id="Wmu0Wc-_Iajqv-uVDVYJ-38" value="Si" style="edgeStyle=orthogonalEdgeStyle;rounded=1;orthogonalLoop=1;jettySize=auto;html=1;" parent="1" source="Wmu0Wc-_Iajqv-uVDVYJ-39" edge="1">
                    <mxGeometry relative="1" as="geometry">
                        <mxPoint x="1730" y="-190" as="targetPoint"/>
                    </mxGeometry>
                </mxCell>
                <mxCell id="Wmu0Wc-_Iajqv-uVDVYJ-39" value="Define estado&amp;nbsp;&lt;br&gt;planeado?" style="points=[[0.25,0.25,0],[0.5,0,0],[0.75,0.25,0],[1,0.5,0],[0.75,0.75,0],[0.5,1,0],[0.25,0.75,0],[0,0.5,0]];shape=mxgraph.bpmn.gateway2;html=1;verticalLabelPosition=bottom;labelBackgroundColor=#ffffff;verticalAlign=top;align=center;perimeter=rhombusPerimeter;outlineConnect=0;outline=none;symbol=none;gwType=exclusive;strokeWidth=1;fillColor=#fff2cc;strokeColor=#d6b656;" parent="1" vertex="1">
                    <mxGeometry x="1705" y="-335" width="50" height="50" as="geometry"/>
                </mxCell>
                <mxCell id="Wmu0Wc-_Iajqv-uVDVYJ-40" style="edgeStyle=orthogonalEdgeStyle;rounded=1;orthogonalLoop=1;jettySize=auto;html=1;entryX=0;entryY=0.5;entryDx=0;entryDy=0;entryPerimeter=0;" parent="1" source="Wmu0Wc-_Iajqv-uVDVYJ-41" target="Wmu0Wc-_Iajqv-uVDVYJ-47" edge="1">
                    <mxGeometry relative="1" as="geometry"/>
                </mxCell>
                <mxCell id="Wmu0Wc-_Iajqv-uVDVYJ-41" value="Guardar &#10;como&#10;PLANEADO" style="points=[[0.25,0,0],[0.5,0,0],[0.75,0,0],[1,0.25,0],[1,0.5,0],[1,0.75,0],[0.75,1,0],[0.5,1,0],[0.25,1,0],[0,0.75,0],[0,0.5,0],[0,0.25,0]];shape=mxgraph.bpmn.task;whiteSpace=wrap;rectStyle=rounded;size=10;taskMarker=service;strokeWidth=1;fillColor=#dae8fc;strokeColor=#6c8ebf;" parent="1" vertex="1">
                    <mxGeometry x="1805" y="-340" width="120" height="60" as="geometry"/>
                </mxCell>
                <mxCell id="Wmu0Wc-_Iajqv-uVDVYJ-42" style="edgeStyle=orthogonalEdgeStyle;rounded=1;orthogonalLoop=1;jettySize=auto;html=1;entryX=0;entryY=0.5;entryDx=0;entryDy=0;entryPerimeter=0;" parent="1" source="Wmu0Wc-_Iajqv-uVDVYJ-47" edge="1">
                    <mxGeometry relative="1" as="geometry">
                        <mxPoint x="1750" y="-300" as="targetPoint"/>
                    </mxGeometry>
                </mxCell>
                <mxCell id="Wmu0Wc-_Iajqv-uVDVYJ-44" value="Guardar &#10;como&#10;PROGRAMADO" style="points=[[0.25,0,0],[0.5,0,0],[0.75,0,0],[1,0.25,0],[1,0.5,0],[1,0.75,0],[0.75,1,0],[0.5,1,0],[0.25,1,0],[0,0.75,0],[0,0.5,0],[0,0.25,0]];shape=mxgraph.bpmn.task;whiteSpace=wrap;rectStyle=rounded;size=10;taskMarker=service;strokeWidth=1;fillColor=#dae8fc;strokeColor=#6c8ebf;" parent="1" vertex="1">
                    <mxGeometry x="1215" y="-180" width="120" height="60" as="geometry"/>
                </mxCell>
                <mxCell id="Wmu0Wc-_Iajqv-uVDVYJ-46" value="" style="group" parent="1" vertex="1" connectable="0">
                    <mxGeometry x="1955" y="-350" width="120" height="70" as="geometry"/>
                </mxCell>
                <mxCell id="Wmu0Wc-_Iajqv-uVDVYJ-47" value="Registro de evento" style="points=[[0.25,0,0],[0.5,0,0],[0.75,0,0],[1,0.25,0],[1,0.5,0],[1,0.75,0],[0.75,1,0],[0.5,1,0],[0.25,1,0],[0,0.75,0],[0,0.5,0],[0,0.25,0]];shape=mxgraph.bpmn.task;whiteSpace=wrap;rectStyle=rounded;size=10;taskMarker=service;strokeWidth=1;fillColor=#dae8fc;strokeColor=#6c8ebf;" parent="Wmu0Wc-_Iajqv-uVDVYJ-46" vertex="1">
                    <mxGeometry y="10" width="120" height="60" as="geometry"/>
                </mxCell>
                <mxCell id="Wmu0Wc-_Iajqv-uVDVYJ-48" value="" style="shape=datastore;whiteSpace=wrap;html=1;labelPosition=center;verticalLabelPosition=bottom;align=center;verticalAlign=top;strokeWidth=1;" parent="Wmu0Wc-_Iajqv-uVDVYJ-46" vertex="1">
                    <mxGeometry x="100" width="20" height="30" as="geometry"/>
                </mxCell>
            </root>
        </mxGraphModel>
    </diagram>
</mxfile>
